<svg xmlns="http://www.w3.org/2000/svg" xmlns:svg="http://www.w3.org/2000/svg" id="svg8" width="417.2" height="407.25" version="1.1" viewBox="0 0 417.2 407.25"><metadata id="metadata5"/><g id="Device" transform="translate(-68.791597,-394.02675)" style="display:inline"><path id="path1292" d="m 360.53959,454.98488 c 3.74994,7.11792 5.22331,12.82285 5.80424,19.98939 1.3281,12.56244 0.9478,23.81846 0.96947,36.4814 l -3.17737,93.86839 c 2.16614,21.37627 5.56926,62.75825 5.56926,62.75825 0.65653,8.98996 -0.46847,26.48228 -0.46847,26.48228 -2.86905,23.33152 -10.5133,37.74934 -19.00067,50.59334 -18.20786,20.92677 -40.13338,36.77577 -73.78077,36.6144 -27.02249,-2.01448 -53.27969,-9.87305 -76.17266,-43.4221 -9.26342,-15.31303 -16.69901,-34.15568 -15.08733,-70.46891 0.62849,-14.11561 1.69038,-28.25238 4.18994,-49.46082 l -0.49311,-29.00325 1.18979,-1.57231 -0.0795,-4.45976 c -1.39215,-1.83047 -1.66233,-3.22446 -1.77535,-5.08282 -0.64341,-16.4181 -3.4946,-31.1865 -1.60176,-47.4595 l 1.47194,-0.0964 c -0.37849,-21.34319 -3.11342,-49.72121 2.66511,-66.67692 1.24485,-3.65274 1.80259,-6.37401 3.52312,-8.88212 l 1.05297,-0.01 c 0.54288,1.3278 1.67594,1.1345 2.10889,-0.024 v -5.52825 c 3.59201,-4.68158 7.50203,-9.54243 12.85097,-13.19967 15.55153,-10.63308 32.80347,-19.96687 65.99229,-22.56979 l -0.0387,6.48824 h 2.2079 l -0.01,-6.47842 c 23.50552,1.65098 57.68029,9.24243 79.04493,36.21112 l -0.0104,4.95885 0.5328,0.02 c -0.0202,1.38148 1.14549,1.60947 1.23348,-0.0306 z" style="fill:#d3d3ce;fill-opacity:1;stroke:#babdb6;stroke-width:1.5;stroke-linecap:butt;stroke-linejoin:miter;stroke-miterlimit:4;stroke-dasharray:none;stroke-opacity:1"/><path id="button4" d="m 188.09729,530.74646 c 1.24811,16.49039 3.84562,32.89212 4.67165,49.41274 -0.23358,2.47096 -1.75447,3.01485 -2.76648,3.22598 -1.40633,-1.85652 -1.95252,-3.40284 -2.12696,-4.9258 -0.5931,-13.32083 -2.99544,-30.31661 -1.59655,-47.61652 z" style="fill:#fff;fill-opacity:1;stroke:#babdb6;stroke-width:1;stroke-linecap:butt;stroke-linejoin:miter;stroke-miterlimit:4;stroke-dasharray:none;stroke-opacity:1"/><path id="button3" d="m 193.52072,585.08288 -4.67671,4.33437 c -0.0827,14.62518 0.50637,29.18789 1.55352,43.76306 0.38765,1.69742 1.72362,5.2371 2.9655,5.04628 1.24187,-0.19081 2.03429,-4.00811 2.05005,-4.80974 0.0158,-0.80162 -1.89236,-48.33397 -1.89236,-48.33397 z" style="fill:#fff;fill-opacity:1;stroke:#babdb6;stroke-width:1;stroke-linecap:butt;stroke-linejoin:miter;stroke-miterlimit:4;stroke-dasharray:none;stroke-opacity:1"/><rect style="color:#000;overflow:visible;opacity:1;fill:#fff;fill-opacity:1;stroke:#babdb6;stroke-width:1;stroke-linecap:butt;stroke-linejoin:bevel;stroke-miterlimit:4;stroke-dasharray:none;stroke-dashoffset:0;stroke-opacity:1;marker:none;marker-start:none;marker-mid:none;marker-end:none;paint-order:normal" id="button2" width="21.618" height="54.844" x="-288.29" y="458.788" rx="10.202" ry="9.381" transform="scale(-1,1)"/><path id="button1" d="m 348.93916,572.45034 c -0.55088,2.3786 -2.02369,4.23561 -5.30087,5.25105 l -65.10412,-0.0533 -0.056,-61.16607 c 6.69027,-0.62851 12.7931,-2.33598 13.40584,-12.8421 l 0.11678,-35.30516 c -0.67751,-4.76842 -1.92823,-11.08275 -13.43942,-12.70653 l -0.11153,-41.76267 c 28.32131,1.35252 61.44583,12.93152 79.04493,36.21112 -0.49018,45.87326 -3.70717,82.71393 -8.55561,122.37369 z" style="fill:#e6e6e4;fill-opacity:1;stroke:#babdb6;stroke-width:1.5;stroke-linecap:butt;stroke-linejoin:miter;stroke-miterlimit:4;stroke-dasharray:none;stroke-opacity:1"/><path style="fill:#e6e6e4;fill-opacity:1;stroke:#babdb6;stroke-width:1.5;stroke-linecap:butt;stroke-linejoin:miter;stroke-miterlimit:4;stroke-dasharray:none;stroke-opacity:1" id="button0" d="m 206.00299,572.3517 c 0.55088,2.3786 2.02369,4.23561 5.30087,5.25105 l 65.10412,-0.0533 -0.0153,-61.06743 c -6.69027,-0.62851 -12.72181,-2.43462 -13.33455,-12.94074 l -0.11678,-35.30516 c 0.67751,-4.76842 2.20116,-11.4932 13.43942,-12.70653 l 0.11153,-41.76267 c -28.7246,1.50375 -63.81513,13.58686 -79.04493,35.85825 0.49018,45.87326 3.70717,83.0668 8.55561,122.72656 z"/><path id="path1318" d="m 360.53959,454.98488 c 0.43129,16.08426 -0.23059,32.16852 -1.31311,48.25278 -2.19193,26.2623 -4.67884,48.98479 -7.12913,72.1468 -1.46408,3.93001 -3.86084,5.76149 -6.84397,6.27364 -43.14472,-1.05018 -87.90934,-1.3804 -135.88124,-0.28516 -2.36085,-0.76628 -4.72268,-1.52623 -6.5588,-5.70331 -2.11905,-20.75413 -4.2381,-39.15076 -6.35715,-65.36609 -1.04644,-16.292 -1.64275,-37.04208 -2.17067,-55.11612" style="fill:none;stroke:#babdb6;stroke-width:1.5;stroke-linecap:butt;stroke-linejoin:miter;stroke-miterlimit:4;stroke-dasharray:none;stroke-opacity:1"/><g style="display:inline" id="led1" transform="translate(427.96393,-8.94861)"><ellipse id="ellipse1298" cx="-150.52" cy="622.589" rx="1.814" ry="1.938" style="fill:#babdb6;fill-opacity:1;stroke:#000;stroke-width:0;stroke-miterlimit:4;stroke-dasharray:none"/><ellipse style="fill:#babdb6;fill-opacity:1;stroke:#000;stroke-width:0;stroke-miterlimit:4;stroke-dasharray:none" id="ellipse1300" cx="-150.52" cy="610.964" rx="1.814" ry="1.938"/><ellipse id="ellipse1302" cx="-150.52" cy="599.152" rx="1.814" ry="1.938" style="fill:#babdb6;fill-opacity:1;stroke:#000;stroke-width:0;stroke-miterlimit:4;stroke-dasharray:none"/></g><path id="led0" d="m -669.98328,291.54166 a 19.936752,19.936752 0 0 1 -28.19482,0 19.936752,19.936752 0 0 1 0,-28.19483 19.936752,19.936752 0 0 1 28.19482,0" transform="rotate(-90)" style="color:#000;display:inline;overflow:visible;vector-effect:none;fill:none;fill-opacity:1;stroke:#babdb6;stroke-width:10;stroke-linecap:square;stroke-linejoin:bevel;stroke-miterlimit:4;stroke-dasharray:none;stroke-opacity:1"/><path style="fill:#fff;fill-opacity:1;stroke:#babdb6;stroke-width:1;stroke-linecap:butt;stroke-linejoin:miter;stroke-miterlimit:4;stroke-dasharray:none;stroke-opacity:1" id="button6" d="m 361.87562,585.08288 4.67671,4.33437 c 0.0827,14.62518 -0.50637,29.18789 -1.55352,43.76306 -0.38765,1.69742 -1.72362,5.2371 -2.9655,5.04628 -1.24187,-0.19081 -2.03429,-4.00811 -2.05005,-4.80974 -0.0158,-0.80162 1.89236,-48.33397 1.89236,-48.33397 z"/><path style="fill:#fff;fill-opacity:1;stroke:#babdb6;stroke-width:1;stroke-linecap:butt;stroke-linejoin:miter;stroke-miterlimit:4;stroke-dasharray:none;stroke-opacity:1" id="button7" d="m 366.49469,530.34846 c -1.24811,16.49039 -3.84562,32.89212 -4.67165,49.41274 0.23358,2.47096 1.75447,3.01485 2.76648,3.22598 1.40633,-1.85652 1.95252,-3.40284 2.12696,-4.9258 0.5931,-13.32083 2.99544,-30.31661 1.59655,-47.61652 z"/><circle id="button5" cx="340.667" cy="596.493" r="10.552" style="fill:#fff;fill-opacity:1;stroke:#babdb6;stroke-width:.94369417;stroke-opacity:1"/></g><g id="Buttons" transform="translate(-68.791597,5.973336)" style="display:inline"><g id="button2-path"><path id="path960" d="m 485.19274,86.21028 -207.71221,10e-7" style="color:#000;overflow:visible;opacity:1;fill:none;fill-opacity:1;stroke:#888a85;stroke-width:.99999994;stroke-linecap:square;stroke-linejoin:miter;stroke-miterlimit:4;stroke-dasharray:none;stroke-dashoffset:0;stroke-opacity:1;marker:none;marker-start:none;marker-mid:none;marker-end:none;paint-order:normal"/><rect id="rect970" width="7" height="7" x="273.981" y="82.71" style="color:#000;overflow:visible;opacity:1;fill:#2e3436;fill-opacity:1;stroke:none;stroke-width:2;stroke-linecap:square;stroke-linejoin:miter;stroke-miterlimit:4;stroke-dasharray:none;stroke-dashoffset:0;stroke-opacity:1;marker:none;marker-start:none;marker-mid:none;marker-end:none;paint-order:normal"/><rect style="color:#000;text-align:start;overflow:visible;fill:#888a85;fill-opacity:1;stroke:none;stroke-linecap:round" id="button2-leader" width="1" height="1" x="485" y="85.71"/></g><g id="button4-path" transform="translate(0,1.8381513)"><path id="path964" d="m 186.12905,161.04893 -116.990518,0.0625" style="color:#000;overflow:visible;opacity:1;fill:none;fill-opacity:1;stroke:#888a85;stroke-width:.99999994;stroke-linecap:square;stroke-linejoin:miter;stroke-miterlimit:4;stroke-dasharray:none;stroke-dashoffset:0;stroke-opacity:1;marker:none;marker-start:none;marker-mid:none;marker-end:none;paint-order:normal"/><rect style="color:#000;text-align:end;overflow:visible;fill:#888a85;fill-opacity:1;stroke:none;stroke-width:.99999994;stroke-linecap:round" id="button4-leader" width=".326" height="1" x="-69.139" y="160.58" transform="scale(-1,1)"/><rect id="rect974" width="7" height="7" x="-189.793" y="157.58" transform="scale(-1,1)" style="color:#000;overflow:visible;opacity:1;fill:#2e3436;fill-opacity:1;stroke:none;stroke-width:2;stroke-linecap:square;stroke-linejoin:miter;stroke-miterlimit:4;stroke-dasharray:none;stroke-dashoffset:0;stroke-opacity:1;marker:none;marker-start:none;marker-mid:none;marker-end:none;paint-order:normal"/></g><g id="button3-path" transform="translate(0.23491919,22.51104)"><path style="color:#000;overflow:visible;opacity:1;fill:none;fill-opacity:1;stroke:#888a85;stroke-width:1;stroke-linecap:square;stroke-linejoin:miter;stroke-miterlimit:4;stroke-dasharray:none;stroke-dashoffset:0;stroke-opacity:1;marker:none;marker-start:none;marker-mid:none;marker-end:none;paint-order:normal" id="path966" d="M 187.9817,205.35644 H 69.129695"/><rect style="color:#000;overflow:visible;opacity:1;fill:#2e3436;fill-opacity:1;stroke:none;stroke-width:2;stroke-linecap:square;stroke-linejoin:miter;stroke-miterlimit:4;stroke-dasharray:none;stroke-dashoffset:0;stroke-opacity:1;marker:none;marker-start:none;marker-mid:none;marker-end:none;paint-order:normal" id="rect976" width="7" height="7" x="-191.92" y="201.856" transform="scale(-1,1)"/><rect id="button3-leader" width=".322" height="1" x="-69.13" y="204.856" transform="scale(-1,1)" style="color:#000;text-align:end;overflow:visible;fill:#888a85;fill-opacity:1;stroke:none;stroke-width:1;stroke-linecap:round"/></g><g id="button1-path"><path style="color:#000;overflow:visible;opacity:1;fill:none;fill-opacity:1;stroke:#888a85;stroke-width:.99999994;stroke-linecap:square;stroke-linejoin:miter;stroke-miterlimit:4;stroke-dasharray:none;stroke-dashoffset:0;stroke-opacity:1;marker:none;marker-start:none;marker-mid:none;marker-end:none;paint-order:normal" id="path958" d="m 316.65466,47.839954 25.8491,-28.270742 H 485"/><rect style="color:#000;text-align:start;overflow:visible;fill:#888a85;fill-opacity:1;stroke:none;stroke-linecap:round" id="button1-leader" width="1" height="1" x="485" y="19.069"/><rect style="color:#000;overflow:visible;opacity:1;fill:#2e3436;fill-opacity:1;stroke:none;stroke-width:2;stroke-linecap:square;stroke-linejoin:miter;stroke-miterlimit:4;stroke-dasharray:none;stroke-dashoffset:0;stroke-opacity:1;marker:none;marker-start:none;marker-mid:none;marker-end:none;paint-order:normal" id="rect968" width="7" height="7" x="313.155" y="44.34"/></g><g id="button0-path"><rect id="button0-leader" width="1" height="1" x="-69.8" y="19.069" transform="scale(-1,1)" style="color:#000;text-align:end;overflow:visible;fill:#888a85;fill-opacity:1;stroke:none;stroke-linecap:round"/><path id="path1398" d="M 237.81014,47.839954 211.96104,19.569212 H 69.464797" style="color:#000;overflow:visible;opacity:1;fill:none;fill-opacity:1;stroke:#888a85;stroke-width:.99999994;stroke-linecap:square;stroke-linejoin:miter;stroke-miterlimit:4;stroke-dasharray:none;stroke-dashoffset:0;stroke-opacity:1;marker:none;marker-start:none;marker-mid:none;marker-end:none;paint-order:normal"/><rect style="color:#000;overflow:visible;opacity:1;fill:#2e3436;fill-opacity:1;stroke:none;stroke-width:2;stroke-linecap:square;stroke-linejoin:miter;stroke-miterlimit:4;stroke-dasharray:none;stroke-dashoffset:0;stroke-opacity:1;marker:none;marker-start:none;marker-mid:none;marker-end:none;paint-order:normal" id="rect910" width="7" height="7" x="234.31" y="44.34"/></g><g id="button6-path" transform="matrix(-1,0,0,1,555.09379,22.417966)"><path id="path5265" d="M 187.9817,205.35644 H 69.129695" style="color:#000;overflow:visible;opacity:1;fill:none;fill-opacity:1;stroke:#888a85;stroke-width:1;stroke-linecap:square;stroke-linejoin:miter;stroke-miterlimit:4;stroke-dasharray:none;stroke-dashoffset:0;stroke-opacity:1;marker:none;marker-start:none;marker-mid:none;marker-end:none;paint-order:normal"/><rect id="rect5267" width="7" height="7" x="-191.92" y="201.856" transform="scale(-1,1)" style="color:#000;overflow:visible;opacity:1;fill:#2e3436;fill-opacity:1;stroke:none;stroke-width:2;stroke-linecap:square;stroke-linejoin:miter;stroke-miterlimit:4;stroke-dasharray:none;stroke-dashoffset:0;stroke-opacity:1;marker:none;marker-start:none;marker-mid:none;marker-end:none;paint-order:normal"/><rect style="color:#000;text-align:start;overflow:visible;fill:#888a85;fill-opacity:1;stroke:none;stroke-width:1;stroke-linecap:round" id="button6-leader" width=".322" height="1" x="-69.13" y="204.856" transform="scale(-1,1)"/></g><g id="button7-path" transform="matrix(-1,0,0,1,555.10913,1.8353018)"><path style="color:#000;overflow:visible;opacity:1;fill:none;fill-opacity:1;stroke:#888a85;stroke-width:.99999994;stroke-linecap:square;stroke-linejoin:miter;stroke-miterlimit:4;stroke-dasharray:none;stroke-dashoffset:0;stroke-opacity:1;marker:none;marker-start:none;marker-mid:none;marker-end:none;paint-order:normal" id="path5275" d="m 186.12905,161.04893 -116.990518,0.0625"/><rect id="button7-leader" width=".326" height="1" x="-69.139" y="160.58" transform="scale(-1,1)" style="color:#000;text-align:start;overflow:visible;fill:#888a85;fill-opacity:1;stroke:none;stroke-width:.99999994;stroke-linecap:round"/><rect style="color:#000;overflow:visible;opacity:1;fill:#2e3436;fill-opacity:1;stroke:none;stroke-width:2;stroke-linecap:square;stroke-linejoin:miter;stroke-miterlimit:4;stroke-dasharray:none;stroke-dashoffset:0;stroke-opacity:1;marker:none;marker-start:none;marker-mid:none;marker-end:none;paint-order:normal" id="rect5279" width="7" height="7" x="-189.793" y="157.58" transform="scale(-1,1)"/></g><g id="button5-path"><path id="path235" d="m 486.00809,195.21132 h -145.18006 0.23492 z" style="opacity:1;vector-effect:none;fill:none;fill-opacity:1;stroke:#888a85;stroke-width:1;stroke-linecap:square;stroke-linejoin:miter;stroke-miterlimit:4;stroke-dasharray:none;stroke-dashoffset:0;stroke-opacity:1;marker:none;marker-start:none;marker-mid:none;marker-end:none;paint-order:normal"/><rect style="color:#000;text-align:start;display:inline;overflow:visible;fill:#888a85;fill-opacity:1;stroke:none;stroke-linecap:round" id="button5-leader" width="1" height="1" x="485.024" y="-195.679" transform="scale(1,-1)"/><rect id="rect166" width="7" height="7" x="-344.603" y="-198.721" transform="scale(-1)" style="color:#000;display:inline;overflow:visible;opacity:1;fill:#2e3436;fill-opacity:1;stroke:none;stroke-width:2;stroke-linecap:square;stroke-linejoin:miter;stroke-miterlimit:4;stroke-dasharray:none;stroke-dashoffset:0;stroke-opacity:1;marker:none;marker-start:none;marker-mid:none;marker-end:none;paint-order:normal"/></g></g><g id="LEDs" transform="translate(-68.791597,5.973336)" style="display:inline"><g id="led0-path" transform="translate(-15.5,-5.0000003)"><path id="path877" d="m 500.95409,289.92309 -198.32705,10e-6" style="color:#000;display:inline;overflow:visible;opacity:1;fill:none;fill-opacity:1;stroke:#888a85;stroke-width:.99999994;stroke-linecap:square;stroke-linejoin:miter;stroke-miterlimit:4;stroke-dasharray:none;stroke-dashoffset:0;stroke-opacity:1;marker:none;marker-start:none;marker-mid:none;marker-end:none;paint-order:normal"/><rect id="rect879" width="7" height="7" x="299.127" y="286.423" style="color:#000;display:inline;overflow:visible;opacity:1;fill:#2e3436;fill-opacity:1;stroke:none;stroke-width:2;stroke-linecap:square;stroke-linejoin:miter;stroke-miterlimit:4;stroke-dasharray:none;stroke-dashoffset:0;stroke-opacity:1;marker:none;marker-start:none;marker-mid:none;marker-end:none;paint-order:normal"/><rect id="led0-leader" width="1" height="1" x="500.512" y="289.423" style="color:#000;text-align:start;display:inline;overflow:visible;fill:#888a85;fill-opacity:1;stroke:none;stroke-linecap:round"/></g><g style="display:inline" id="led1-path" transform="translate(-15.527999,-87.969654)"><path id="path877-2" d="m 500.95409,289.92309 -198.32705,10e-6" style="color:#000;display:inline;overflow:visible;opacity:1;fill:none;fill-opacity:1;stroke:#888a85;stroke-width:.99999994;stroke-linecap:square;stroke-linejoin:miter;stroke-miterlimit:4;stroke-dasharray:none;stroke-dashoffset:0;stroke-opacity:1;marker:none;marker-start:none;marker-mid:none;marker-end:none;paint-order:normal"/><rect id="rect879-7" width="7" height="7" x="299.127" y="286.423" style="color:#000;display:inline;overflow:visible;opacity:1;fill:#2e3436;fill-opacity:1;stroke:none;stroke-width:2;stroke-linecap:square;stroke-linejoin:miter;stroke-miterlimit:4;stroke-dasharray:none;stroke-dashoffset:0;stroke-opacity:1;marker:none;marker-start:none;marker-mid:none;marker-end:none;paint-order:normal"/><rect id="led1-leader" width="1" height="1" x="500.512" y="289.423" style="color:#000;text-align:start;display:inline;overflow:visible;fill:#888a85;fill-opacity:1;stroke:none;stroke-linecap:round"/></g></g></svg>