<svg xmlns="http://www.w3.org/2000/svg" xmlns:svg="http://www.w3.org/2000/svg" id="svg8" width="417.2" height="407.25" version="1.1" viewBox="0 0 417.2 407.25"><metadata id="metadata5"/><g id="Device" transform="translate(-68.791597,-394.02675)" style="display:inline"><path style="color:#000;overflow:visible;opacity:1;fill:#d3d3ce;fill-opacity:1;stroke:#babdb6;stroke-width:3;stroke-linecap:butt;stroke-linejoin:miter;stroke-miterlimit:4;stroke-dasharray:none;stroke-dashoffset:0;stroke-opacity:1;marker:none;marker-start:none;marker-mid:none;marker-end:none;paint-order:normal" id="path870" d="m 183.34499,416.02062 c -24.661,4.08226 -49.92333,21.30746 -57.18502,32.68484 -8.18178,12.81894 -33.473053,116.65587 -34.496301,163.9888 15.773271,86.16472 55.738681,146.5572 61.556861,154.99421 4.70624,6.82458 9.70825,11.92177 42.30188,12.39158 32.59363,0.46981 37.71496,-5.68647 43.38814,-11.32031 4.79276,-4.75952 54.85052,-92.05678 61.98662,-153.22394 -1.55176,-67.0395 -18.56389,-150.61293 -30.38133,-163.10122 -11.79119,-12.46055 -51.83653,-36.40671 -54.76015,-36.45817 l 0,7.19061 -32.4107,0 z"/><path id="path5040" d="m 92.50792,592.62443 c 17.91963,82.02052 35.18878,118.28381 72.23883,184.44829" style="color:#000;display:inline;overflow:visible;opacity:1;fill:none;fill-opacity:1;stroke:#bfc2bb;stroke-width:1;stroke-linecap:square;stroke-linejoin:miter;stroke-miterlimit:4;stroke-dasharray:none;stroke-dashoffset:0;stroke-opacity:1;marker:none;marker-start:none;marker-mid:none;marker-end:none;paint-order:normal"/><path style="color:#000;overflow:visible;opacity:1;fill:#eeeeec;fill-opacity:1;stroke:#babdb6;stroke-width:2;stroke-linecap:butt;stroke-linejoin:bevel;stroke-miterlimit:4;stroke-dasharray:none;stroke-dashoffset:0;stroke-opacity:1;marker:none;marker-start:none;marker-mid:none;marker-end:none;paint-order:normal" id="rect913" d="m 216.16981,422.85766 -2.60225,201.6236 c -0.0907,7.03035 -6.07063,10.44123 -13.61129,10.44123 -7.54065,0 -13.50652,-3.41107 -13.61128,-10.44123 l -3,-201.31424 z"/><rect style="color:#000;overflow:visible;opacity:1;fill:#fff;fill-opacity:1;stroke:#babdb6;stroke-width:1;stroke-linecap:butt;stroke-linejoin:bevel;stroke-miterlimit:4;stroke-dasharray:none;stroke-dashoffset:0;stroke-opacity:1;marker:none;marker-start:none;marker-mid:none;marker-end:none;paint-order:normal" id="button2" width="23.156" height="57.718" x="188.554" y="469.019" rx="11.578" ry="11.578"/><path id="button5" d="m 209.20722,547.47605 -0.65676,37.92859 c -0.0779,4.49803 -3.83301,8.12045 -8.59419,8.12045 -4.76117,0 -8.51628,-3.62242 -8.59417,-8.12045 l -0.65677,-37.92859 z" style="color:#000;overflow:visible;opacity:1;fill:#fff;fill-opacity:1;stroke:#babdb6;stroke-width:1;stroke-linecap:butt;stroke-linejoin:bevel;stroke-miterlimit:4;stroke-dasharray:none;stroke-dashoffset:0;stroke-opacity:1;marker:none;marker-start:none;marker-mid:none;marker-end:none;paint-order:normal"/><path style="color:#000;display:inline;overflow:visible;fill:none;fill-opacity:1;stroke:#babdb6;stroke-width:10;stroke-linecap:square;stroke-linejoin:bevel;stroke-miterlimit:4;stroke-dasharray:none;stroke-opacity:1" id="led0" d="m -719.71817,209.39374 a 13.376111,13.525835 0 0 1 -18.91668,0 13.376111,13.525835 0 0 1 0,-19.12842 13.376111,13.525835 0 0 1 18.91667,0" transform="matrix(0,-1,1,0,0,0)"/><path id="button1" d="M 298.92308,580.98137 C 293.8094,522.57046 280.3602,462.83778 270.51584,452.43458 258.72465,439.97403 218.67931,416.02787 215.75569,415.97641 l -0.003,7.2085 -0.50645,110.06055 83.95322,47.95787" style="color:#000;display:inline;overflow:visible;opacity:1;fill:#d3d3ce;fill-opacity:1;stroke:#bfc2bb;stroke-width:3;stroke-linecap:square;stroke-linejoin:miter;stroke-miterlimit:4;stroke-dasharray:none;stroke-dashoffset:0;stroke-opacity:1;marker:none;marker-start:none;marker-mid:none;marker-end:none;paint-order:normal"/><path id="button0" d="m 115.69423,138.97706 -1.12358,-110.662125 -0.0378,-6.147082 C 89.8643,26.095287 64.626024,43.307658 57.368373,54.67871 52.0464,63.017 39.485291,109.86559 31.072821,154.624 c -1.978688,10.52757 -3.72786,20.93951 -5.142655,31.38156 z" transform="translate(68.791597,394.02675)" style="color:#000;display:inline;overflow:visible;opacity:1;fill:#d3d3ce;fill-opacity:1;stroke:#babdb6;stroke-width:3;stroke-linecap:butt;stroke-linejoin:miter;stroke-miterlimit:4;stroke-dasharray:none;stroke-dashoffset:0;stroke-opacity:1;marker:none;marker-start:none;marker-mid:none;marker-end:none;paint-order:normal"/><path style="color:#000;display:inline;overflow:visible;opacity:1;fill:none;fill-opacity:1;stroke:#bfc2bb;stroke-width:1;stroke-linecap:square;stroke-linejoin:miter;stroke-miterlimit:4;stroke-dasharray:none;stroke-dashoffset:0;stroke-opacity:1;marker:none;marker-start:none;marker-mid:none;marker-end:none;paint-order:normal" id="path5042" d="M 299.98341,585.82953 C 288.7813,671.38558 244.14684,741.20584 228.31,776.96473"/><path id="path5016" d="m 183.34499,416.02062 c -24.661,4.08226 -49.92333,21.30746 -57.18502,32.68484 -8.18178,12.81894 -33.47305,116.65587 -34.4963,163.9888 15.77327,86.16472 55.73868,146.5572 61.55686,154.99421 4.70624,6.82458 9.70825,11.92177 42.30188,12.39158 32.59363,0.46981 37.71496,-5.68647 43.38814,-11.32031 4.79276,-4.75952 54.85052,-92.05678 61.98662,-153.22394 -1.55176,-67.0395 -18.56389,-150.61293 -30.38133,-163.10122 -11.79119,-12.46055 -51.83653,-36.40671 -54.76015,-36.45817 l 0,7.19061 -32.4107,0 z" style="color:#000;overflow:visible;opacity:1;fill:none;fill-opacity:1;stroke:#babdb6;stroke-width:3;stroke-linecap:butt;stroke-linejoin:miter;stroke-miterlimit:4;stroke-dasharray:none;stroke-dashoffset:0;stroke-opacity:1;marker:none;marker-start:none;marker-mid:none;marker-end:none;paint-order:normal"/><path style="color:#000;overflow:visible;opacity:1;fill:#fff;fill-opacity:1;stroke:#babdb6;stroke-width:1;stroke-linecap:butt;stroke-linejoin:bevel;stroke-miterlimit:4;stroke-dasharray:none;stroke-dashoffset:0;stroke-opacity:1;marker:none;marker-start:none;marker-mid:none;marker-end:none;paint-order:normal" id="button4" d="m 102.08895,531.68418 c 0.53723,0.0143 -0.15214,3.8319 -0.54934,6.21419 l -7.140506,42.82642 -5.16583,0.42115 8.76037,-44.50491 c 0.466456,-2.3697 1.681005,-5.02125 4.095306,-4.95685 z"/><path style="color:#000;display:inline;overflow:visible;opacity:1;fill:#fff;fill-opacity:1;stroke:#babdb6;stroke-width:1;stroke-linecap:butt;stroke-linejoin:bevel;stroke-miterlimit:4;stroke-dasharray:none;stroke-dashoffset:0;stroke-opacity:1;marker:none;marker-start:none;marker-mid:none;marker-end:none;paint-order:normal" id="button3" d="m 92.206722,591.3329 c 2.40195,-0.25239 2.836696,1.11858 3.023443,3.52652 l 3.57032,46.03607 c 0.186747,2.40794 -0.771034,3.65494 -3.172974,3.90732 -2.40195,0.25238 -6.087456,-7.10638 -6.124623,-9.52127 l -0.504216,-32.76168 c -0.03717,-2.41488 0.8061,-10.93458 3.20805,-11.18696 z"/><path id="led1" d="m 29.707031,242.95703 c 17.947503,72.58734 50.782189,122.34942 55.957031,129.85352 2.115971,3.06841 4.009169,5.50137 8.642579,7.49023 C 59.190137,317.56953 43.428144,284.03672 27.683594,216.87891 l 2.023437,26.07812 z M 229.75195,201.85742 c -14.69885,84.15847 -52.92757,142.415 -68.74414,178.1543 3.74134,-1.87015 5.74151,-4.04661 8.05469,-6.34375 0.24888,-0.24715 1.70524,-2.23579 3.5293,-5.16992 1.82406,-2.93413 4.19179,-6.95551 6.92187,-11.84375 5.46015,-9.77649 12.37582,-23.01815 19.36133,-38.01368 13.95635,-29.95956 28.17703,-66.96234 31.72656,-97.20898 -0.14948,-6.39067 -0.43956,-12.93267 -0.84961,-19.57422 z" transform="translate(68.791597,394.02675)" style="color:#000;display:inline;overflow:visible;opacity:1;fill:#babdb6;fill-opacity:1;stroke:none;stroke-width:1;stroke-linecap:square;stroke-linejoin:miter;stroke-miterlimit:4;stroke-dasharray:none;stroke-dashoffset:0;stroke-opacity:1;marker:none;marker-start:none;marker-mid:none;marker-end:none;paint-order:normal"/></g><g id="Buttons" transform="translate(-68.791597,5.973336)" style="display:inline"><g id="button1-path" transform="translate(8,-8)"><path style="color:#000;overflow:visible;opacity:1;fill:none;fill-opacity:1;stroke:#888a85;stroke-width:1;stroke-linecap:square;stroke-linejoin:miter;stroke-miterlimit:4;stroke-dasharray:none;stroke-dashoffset:0;stroke-opacity:1;marker:none;marker-start:none;marker-mid:none;marker-end:none;paint-order:normal" id="path958" d="m 242.94764,50.505764 234.05236,0"/><rect style="color:#000;overflow:visible;opacity:1;fill:#2e3436;fill-opacity:1;stroke:none;stroke-width:2;stroke-linecap:square;stroke-linejoin:miter;stroke-miterlimit:4;stroke-dasharray:none;stroke-dashoffset:0;stroke-opacity:1;marker:none;marker-start:none;marker-mid:none;marker-end:none;paint-order:normal" id="rect968" width="7" height="7" x="237" y="47.006"/><rect style="color:#000;text-align:start;overflow:visible;fill:#888a85;fill-opacity:1;stroke:none;stroke-linecap:round" id="button1-leader" width="1" height="1" x="477" y="50.006"/></g><g id="button0-path" transform="translate(8,-8)"><path id="path960" d="m 477,130.50576 -327.65602,0" style="color:#000;overflow:visible;opacity:1;fill:none;fill-opacity:1;stroke:#888a85;stroke-width:1;stroke-linecap:square;stroke-linejoin:miter;stroke-miterlimit:4;stroke-dasharray:none;stroke-dashoffset:0;stroke-opacity:1;marker:none;marker-start:none;marker-mid:none;marker-end:none;paint-order:normal"/><rect id="rect970" width="7" height="7" x="143" y="127.006" style="color:#000;overflow:visible;opacity:1;fill:#2e3436;fill-opacity:1;stroke:none;stroke-width:2;stroke-linecap:square;stroke-linejoin:miter;stroke-miterlimit:4;stroke-dasharray:none;stroke-dashoffset:0;stroke-opacity:1;marker:none;marker-start:none;marker-mid:none;marker-end:none;paint-order:normal"/><rect style="color:#000;text-align:start;overflow:visible;fill:#888a85;fill-opacity:1;stroke:none;stroke-linecap:round" id="button0-leader" width="1" height="1" x="477" y="130.006"/></g><g id="button4-path" transform="translate(8,-8)"><path id="path964" d="M 89.31232,181.51438 117.74787,210.44326 477,210.50576" style="color:#000;overflow:visible;opacity:1;fill:none;fill-opacity:1;stroke:#888a85;stroke-width:.99999994;stroke-linecap:square;stroke-linejoin:miter;stroke-miterlimit:4;stroke-dasharray:none;stroke-dashoffset:0;stroke-opacity:1;marker:none;marker-start:none;marker-mid:none;marker-end:none;paint-order:normal"/><rect style="color:#000;text-align:start;overflow:visible;fill:#888a85;fill-opacity:1;stroke:none;stroke-linecap:round" id="button4-leader" width="1" height="1" x="477" y="210.006"/><rect id="rect974" width="7" height="7" x="85" y="177" style="color:#000;overflow:visible;opacity:1;fill:#2e3436;fill-opacity:1;stroke:none;stroke-width:2;stroke-linecap:square;stroke-linejoin:miter;stroke-miterlimit:4;stroke-dasharray:none;stroke-dashoffset:0;stroke-opacity:1;marker:none;marker-start:none;marker-mid:none;marker-end:none;paint-order:normal"/></g><g id="button2-path" transform="translate(8,-8)"><rect id="button2-leader" width="1" height="1" x="477" y="90.006" style="color:#000;text-align:start;overflow:visible;fill:#888a85;fill-opacity:1;stroke:none;stroke-linecap:round"/><path style="color:#000;overflow:visible;opacity:1;fill:none;fill-opacity:1;stroke:#888a85;stroke-width:1;stroke-linecap:square;stroke-linejoin:miter;stroke-miterlimit:4;stroke-dasharray:none;stroke-dashoffset:0;stroke-opacity:1;marker:none;marker-start:none;marker-mid:none;marker-end:none;paint-order:normal" id="path908" d="m 195.97852,108.49147 17.9857,-17.98571 263.03578,0"/><rect style="color:#000;overflow:visible;opacity:1;fill:#2e3436;fill-opacity:1;stroke:none;stroke-width:2;stroke-linecap:square;stroke-linejoin:miter;stroke-miterlimit:4;stroke-dasharray:none;stroke-dashoffset:0;stroke-opacity:1;marker:none;marker-start:none;marker-mid:none;marker-end:none;paint-order:normal" id="rect910" width="7" height="7" x="194" y="104"/></g><g id="button3-path" transform="translate(8,-8)"><path style="color:#000;overflow:visible;opacity:1;fill:none;fill-opacity:1;stroke:#888a85;stroke-width:1;stroke-linecap:square;stroke-linejoin:miter;stroke-miterlimit:4;stroke-dasharray:none;stroke-dashoffset:0;stroke-opacity:1;marker:none;marker-start:none;marker-mid:none;marker-end:none;paint-order:normal" id="path966" d="m 88.786361,231.47803 18.999029,19.02773 369.21461,0"/><rect style="color:#000;overflow:visible;opacity:1;fill:#2e3436;fill-opacity:1;stroke:none;stroke-width:2;stroke-linecap:square;stroke-linejoin:miter;stroke-miterlimit:4;stroke-dasharray:none;stroke-dashoffset:0;stroke-opacity:1;marker:none;marker-start:none;marker-mid:none;marker-end:none;paint-order:normal" id="rect976" width="7" height="7" x="82.884" y="225.006"/><rect id="button3-leader" width="1" height="1" x="477" y="250.006" style="color:#000;text-align:start;overflow:visible;fill:#888a85;fill-opacity:1;stroke:none;stroke-linecap:round"/></g><g id="button5-path" transform="translate(8,-8)"><path style="color:#000;overflow:visible;opacity:1;fill:none;fill-opacity:1;stroke:#888a85;stroke-width:.99999994;stroke-linecap:square;stroke-linejoin:miter;stroke-miterlimit:4;stroke-dasharray:none;stroke-dashoffset:0;stroke-opacity:1;marker:none;marker-start:none;marker-mid:none;marker-end:none;paint-order:normal" id="path51" d="m 476.55132,170.50615 -283.20734,0"/><rect style="color:#000;overflow:visible;opacity:1;fill:#2e3436;fill-opacity:1;stroke:none;stroke-width:2;stroke-linecap:square;stroke-linejoin:miter;stroke-miterlimit:4;stroke-dasharray:none;stroke-dashoffset:0;stroke-opacity:1;marker:none;marker-start:none;marker-mid:none;marker-end:none;paint-order:normal" id="rect53" width="7" height="7" x="189" y="167"/><rect id="button5-leader" width="1" height="1" x="477" y="170" style="color:#000;text-align:start;overflow:visible;fill:#888a85;fill-opacity:1;stroke:none;stroke-linecap:round"/></g></g><g id="LEDs" transform="translate(-68.791597,5.973336)" style="display:inline"><g id="led0-path" transform="translate(8,56)"><path id="path877" d="m 477,290.50577 -268.35562,0 -18.97696,-18.97696" style="color:#000;display:inline;overflow:visible;opacity:1;fill:none;fill-opacity:1;stroke:#888a85;stroke-width:1;stroke-linecap:square;stroke-linejoin:miter;stroke-miterlimit:4;stroke-dasharray:none;stroke-dashoffset:0;stroke-opacity:1;marker:none;marker-start:none;marker-mid:none;marker-end:none;paint-order:normal"/><rect id="rect879" width="7" height="7" x="188.281" y="269.969" style="color:#000;display:inline;overflow:visible;opacity:1;fill:#2e3436;fill-opacity:1;stroke:none;stroke-width:2;stroke-linecap:square;stroke-linejoin:miter;stroke-miterlimit:4;stroke-dasharray:none;stroke-dashoffset:0;stroke-opacity:1;marker:none;marker-start:none;marker-mid:none;marker-end:none;paint-order:normal"/><rect id="led0-leader" width="1" height="1" x="477" y="290.006" style="color:#000;text-align:start;display:inline;overflow:visible;fill:#888a85;fill-opacity:1;stroke:none;stroke-linecap:round"/></g><g id="led1-path" transform="translate(8,274)"><path style="color:#000;display:inline;overflow:visible;opacity:1;fill:none;fill-opacity:1;stroke:#888a85;stroke-width:1;stroke-linecap:square;stroke-linejoin:miter;stroke-miterlimit:4;stroke-dasharray:none;stroke-dashoffset:0;stroke-opacity:1;marker:none;marker-start:none;marker-mid:none;marker-end:none;paint-order:normal" id="path4525" d="m 476.99745,10.505764 -192.31824,0 -23.37131,23.307989"/><rect style="color:#000;text-align:start;display:inline;overflow:visible;fill:#888a85;fill-opacity:1;stroke:none;stroke-linecap:round" id="led1-leader" width="1" height="1" x="477" y="10.006"/><rect style="color:#000;display:inline;overflow:visible;opacity:1;fill:#2e3436;fill-opacity:1;stroke:none;stroke-width:2;stroke-linecap:square;stroke-linejoin:miter;stroke-miterlimit:4;stroke-dasharray:none;stroke-dashoffset:0;stroke-opacity:1;marker:none;marker-start:none;marker-mid:none;marker-end:none;paint-order:normal" id="rect4544" width="7" height="7" x="257.693" y="30.345"/></g></g></svg>