<svg xmlns="http://www.w3.org/2000/svg" xmlns:svg="http://www.w3.org/2000/svg" id="svg8" width="500" height="500" enable-background="new" version="1.1" viewBox="0 0 132.292 132.292"><metadata id="metadata5"/><g id="Device" transform="translate(0,-164.70822)" style="display:inline"><path id="bodypath" d="m 39.69516,216.94444 c -9.856883,27.8809 0.0072,73.11612 28.464201,72.96458 21.82234,0.11307 30.69405,-20.988 31.53781,-29.80056 1.274389,-13.31013 -2.68119,-25.46541 -1.83545,-29.41145 10.419489,-52.02038 -18.74587,-58.97964 -29.99541,-59.08189 -18.18013,0.8552 -32.333564,15.22239 -28.171151,45.32932 z" style="fill:#d3d3ce;fill-opacity:1;stroke:#babdb6;stroke-width:.98636669;stroke-linecap:butt;stroke-linejoin:miter;stroke-miterlimit:4;stroke-dasharray:none;stroke-opacity:1"/><path id="clickpath" d="m 68.207011,173.79323 c -33.072913,3.96875 -26.271826,30.56252 -18.123956,64.55834 1.475935,23.93732 -7.528639,26.27098 -5.754687,34.26354 8.003646,21.56354 38.267583,22.80132 49.477073,1.52135 4.46264,-8.46327 -10.0871,-11.13731 -6.69206,-34.90092 6.18044,-22.99486 15.489469,-61.47356 -18.90637,-65.44231 z" style="fill:#eeeeec;fill-opacity:1;stroke:#babdb6;stroke-width:.61647916;stroke-linecap:butt;stroke-linejoin:miter;stroke-miterlimit:4;stroke-dasharray:none;stroke-opacity:1"/><circle id="button7" cx="68.235" cy="215.797" r="2.381" style="display:inline;opacity:1;fill:#fbfbfb;fill-opacity:1;stroke:#babab6;stroke-width:.61647916;stroke-miterlimit:4;stroke-dasharray:none;stroke-opacity:1"/><path id="scrollwheelbodypath" d="m 63.432701,171.72618 c -3.76589,29.45916 -0.74761,56.684 5.52847,56.44358 6.27608,-0.24043 7.89,-33.46409 4.18552,-56.47902 -3.88134,-0.80792 -5.99801,-0.80792 -9.71399,0.0354 z" style="fill:#eeeeec;fill-opacity:1;stroke:#babdb6;stroke-width:.67442292;stroke-linecap:butt;stroke-linejoin:miter;stroke-miterlimit:4;stroke-dasharray:none;stroke-opacity:1"/><circle id="button6" cx="68.394" cy="182.358" r="2.381" style="display:inline;opacity:1;fill:#fbfbfb;fill-opacity:1;stroke:#babab6;stroke-width:.61647916;stroke-miterlimit:4;stroke-dasharray:none;stroke-opacity:1"/><circle id="button5" cx="68.207" cy="204.485" r="2.381" style="display:inline;opacity:1;fill:#fbfbfb;fill-opacity:1;stroke:#babab6;stroke-width:.61647916;stroke-miterlimit:4;stroke-dasharray:none;stroke-opacity:1"/><path id="button4" d="m 39.29656,207.57722 c -1.848299,0.92415 -0.193712,10.13685 0.518002,10.43448 0.795499,0.33267 0.611202,-1.88513 0.611201,-5.85388 -1e-6,-1.85209 -0.600036,-4.84519 -1.129203,-4.5806 z" style="display:inline;opacity:1;fill:#fbfbfb;fill-opacity:1;stroke:#babab6;stroke-width:.61647916;stroke-linecap:butt;stroke-linejoin:miter;stroke-miterlimit:4;stroke-dasharray:none;stroke-opacity:1"/><path id="button3" d="m 40.331269,220.29612 c -1.058332,2.11666 1.152828,17.26169 2.475745,17.2617 1.322918,0 0.264584,-6.35 0,-9.26042 -0.264583,-2.91041 -2.049117,-8.85454 -2.475745,-8.00128 z" style="display:inline;opacity:1;fill:#fbfbfb;fill-opacity:1;stroke:#babab6;stroke-width:.61647916;stroke-linecap:butt;stroke-linejoin:miter;stroke-miterlimit:4;stroke-dasharray:none;stroke-opacity:1"/><rect id="button2" width="7.174" height="14.788" x="64.734" y="185.865" rx="3.346" ry="6.449" style="display:inline;opacity:1;fill:#fbfbfb;fill-opacity:1;stroke:#babab6;stroke-width:.61647916;stroke-miterlimit:4;stroke-dasharray:none;stroke-opacity:1"/><path id="button1" d="m 74.048242,175.25648 c 3.327964,26.53537 0.71033,50.03103 -3.635623,52.68545 l 19.174022,0.0227 c 4.275532,-19.41743 7.60623,-46.19997 -15.538399,-52.70819 z" style="display:inline;fill:#eeeeec;fill-opacity:1;stroke:none;stroke-width:0;stroke-linecap:butt;stroke-linejoin:miter;stroke-miterlimit:4;stroke-dasharray:none;stroke-opacity:1"/><path id="button0" d="m 62.673505,175.08721 c -3.867265,33.02273 1.20812,53.2573 4.968872,53.12927 l -19.635621,-0.005 C 41.584468,198.965 39.988224,180.85733 62.673505,175.08721 Z" style="display:inline;fill:#eeeeec;fill-opacity:1;stroke:none;stroke-width:.26458332px;stroke-linecap:butt;stroke-linejoin:miter;stroke-opacity:1"/></g><g id="Buttons" transform="translate(0,-164.70822)" style="display:inline"><g id="button7-path" transform="translate(-46.169794,154.38426)"><path style="text-align:start;fill:none;stroke:#888a85;stroke-width:.26458332;stroke-linecap:butt;stroke-linejoin:miter;stroke-miterlimit:4;stroke-dasharray:none;stroke-opacity:1" id="path9138" d="m 114.43229,61.157045 8.46666,4.762499 h 55.5625"/><rect id="button7-leader" width=".265" height=".265" x="178.197" y="65.788" rx="0" ry="0" style="text-align:start;opacity:1;fill:#888a85;fill-opacity:1;stroke:none;stroke-width:0;stroke-miterlimit:4;stroke-dasharray:none;stroke-dashoffset:0;stroke-opacity:1"/><rect id="rect9142" width="1.852" height="1.852" x="113.639" y="60.595" ry="0" style="opacity:1;fill:#2e3436;fill-opacity:1;stroke:none;stroke-width:.5291667;stroke-miterlimit:4;stroke-dasharray:none;stroke-dashoffset:0;stroke-opacity:1"/></g><g id="button6-path" transform="translate(-46.169794,154.38426)"><path id="path9114" d="m 114.43229,27.521875 8.46666,4.762499 h 55.5625" style="fill:none;stroke:#888a85;stroke-width:.26458332;stroke-linecap:butt;stroke-linejoin:miter;stroke-miterlimit:4;stroke-dasharray:none;stroke-opacity:1"/><rect style="text-align:start;opacity:1;fill:#888a85;fill-opacity:1;stroke:none;stroke-width:0;stroke-miterlimit:4;stroke-dasharray:none;stroke-dashoffset:0;stroke-opacity:1" id="button6-leader" width=".265" height=".265" x="178.197" y="32.152" rx="0" ry="0"/><rect style="opacity:1;fill:#2e3436;fill-opacity:1;stroke:none;stroke-width:.5291667;stroke-miterlimit:4;stroke-dasharray:none;stroke-dashoffset:0;stroke-opacity:1" id="rect9118" width="1.852" height="1.852" x="113.639" y="26.993" ry="0"/></g><g id="button5-path" transform="translate(-46.169794,154.38426)"><path id="path9130" d="m 114.43229,49.746882 8.46666,4.762499 h 55.5625" style="text-align:start;fill:none;stroke:#888a85;stroke-width:.26458332;stroke-linecap:butt;stroke-linejoin:miter;stroke-miterlimit:4;stroke-dasharray:none;stroke-opacity:1"/><rect style="text-align:start;opacity:1;fill:#888a85;fill-opacity:1;stroke:none;stroke-width:0;stroke-miterlimit:4;stroke-dasharray:none;stroke-dashoffset:0;stroke-opacity:1" id="button5-leader" width=".265" height=".265" x="178.197" y="54.377" rx="0" ry="0"/><rect style="opacity:1;fill:#2e3436;fill-opacity:1;stroke:none;stroke-width:.5291667;stroke-miterlimit:4;stroke-dasharray:none;stroke-dashoffset:0;stroke-opacity:1" id="rect9134" width="1.852" height="1.852" x="113.639" y="49.218" ry="0"/></g><g id="button4-path" transform="translate(-46.169794,154.38426)"><path style="text-align:end;fill:none;stroke:#888a85;stroke-width:.26458332;stroke-linecap:butt;stroke-linejoin:miter;stroke-miterlimit:4;stroke-dasharray:none;stroke-opacity:1" id="path9098" d="M 85.85729,57.948956 H 46.169794"/><rect id="button4-leader" width=".265" height=".265" x="46.171" y="57.817" rx="0" ry="0" style="text-align:end;opacity:1;fill:#888a85;fill-opacity:1;stroke:none;stroke-width:0;stroke-miterlimit:4;stroke-dasharray:none;stroke-dashoffset:0;stroke-opacity:1"/><rect id="rect9102" width="1.852" height="1.852" x="84.931" y="57.023" ry="0" style="opacity:1;fill:#2e3436;fill-opacity:1;stroke:none;stroke-width:.5291667;stroke-miterlimit:4;stroke-dasharray:none;stroke-dashoffset:0;stroke-opacity:1"/></g><g id="button3-path" transform="translate(-46.169794,154.38426)"><path id="path9106" d="M 87.973957,75.146871 H 46.169794" style="fill:none;stroke:#888a85;stroke-width:.26458332;stroke-linecap:butt;stroke-linejoin:miter;stroke-miterlimit:4;stroke-dasharray:none;stroke-opacity:1"/><rect style="text-align:end;opacity:1;fill:#888a85;fill-opacity:1;stroke:none;stroke-width:0;stroke-miterlimit:4;stroke-dasharray:none;stroke-dashoffset:0;stroke-opacity:1" id="button3-leader" width=".265" height=".265" x="46.17" y="75.014" rx="0" ry="0"/><rect style="opacity:1;fill:#2e3436;fill-opacity:1;stroke:none;stroke-width:.5291667;stroke-miterlimit:4;stroke-dasharray:none;stroke-dashoffset:0;stroke-opacity:1" id="rect9110" width="1.852" height="1.852" x="87.048" y="74.221" ry="0"/></g><g id="button2-path" transform="translate(-46.169794,154.38426)"><path style="text-align:start;fill:none;stroke:#888a85;stroke-width:.26458332;stroke-linecap:butt;stroke-linejoin:miter;stroke-miterlimit:4;stroke-dasharray:none;stroke-opacity:1" id="path9122" d="m 114.43229,38.634375 8.46666,4.762499 h 55.5625"/><rect id="button2-leader" width=".265" height=".265" x="178.197" y="43.265" rx="0" ry="0" style="text-align:start;opacity:1;fill:#888a85;fill-opacity:1;stroke:none;stroke-width:0;stroke-miterlimit:4;stroke-dasharray:none;stroke-dashoffset:0;stroke-opacity:1"/><rect id="rect9126" width="1.852" height="1.852" x="113.639" y="38.105" ry="0" style="opacity:1;fill:#2e3436;fill-opacity:1;stroke:none;stroke-width:.5291667;stroke-miterlimit:4;stroke-dasharray:none;stroke-dashoffset:0;stroke-opacity:1"/></g><g id="button1-path" transform="translate(-46.169794,154.38426)"><path style="text-align:end;fill:none;stroke:#888a85;stroke-width:.26458332;stroke-linecap:butt;stroke-linejoin:miter;stroke-miterlimit:4;stroke-dasharray:none;stroke-opacity:1" id="path9090" d="M 124.22187,26.198959 114.96145,14.29271 H 46.169794"/><rect id="button1-leader" width=".265" height=".265" x="46.17" y="14.158" rx="0" ry="0" style="text-align:end;opacity:1;fill:#888a85;fill-opacity:1;stroke:none;stroke-width:0;stroke-miterlimit:4;stroke-dasharray:none;stroke-dashoffset:0;stroke-opacity:1"/><rect id="rect9094" width="1.852" height="1.852" x="123.296" y="25.273" ry="0" style="opacity:1;fill:#2e3436;fill-opacity:1;stroke:none;stroke-width:.5291667;stroke-miterlimit:4;stroke-dasharray:none;stroke-dashoffset:0;stroke-opacity:1"/></g><g id="button0-path" transform="translate(-46.169794,154.38426)"><path id="path9082" d="M 100.40937,40.751041 H 46.169794" style="fill:none;stroke:#888a85;stroke-width:.26458332;stroke-linecap:butt;stroke-linejoin:miter;stroke-miterlimit:4;stroke-dasharray:none;stroke-opacity:1"/><rect style="text-align:end;opacity:1;fill:#888a85;fill-opacity:1;stroke:none;stroke-width:0;stroke-miterlimit:4;stroke-dasharray:none;stroke-dashoffset:0;stroke-opacity:1;filter:url(#filter1742)" id="button0-leader" width=".265" height=".265" x="46.17" y="40.617" rx="0" ry="0"/><rect style="opacity:1;fill:#2e3436;fill-opacity:1;stroke:none;stroke-width:.5291667;stroke-miterlimit:4;stroke-dasharray:none;stroke-dashoffset:0;stroke-opacity:1" id="rect9086" width="1.852" height="1.852" x="99.483" y="39.825" ry="0"/></g></g></svg>