<svg xmlns="http://www.w3.org/2000/svg" xmlns:svg="http://www.w3.org/2000/svg" id="svg8" width="409.208" height="411.271" version="1.1" viewBox="0 0 409.208 411.271"><metadata id="metadata5"/><g id="Device" transform="translate(-68.791597,-390.00576)" style="display:inline"><path style="color:#000;overflow:visible;opacity:1;vector-effect:none;fill:#d3d3ce;fill-opacity:1;stroke:#babdb6;stroke-width:3;stroke-linecap:butt;stroke-linejoin:miter;stroke-miterlimit:4;stroke-dasharray:none;stroke-dashoffset:0;stroke-opacity:1;marker:none;marker-start:none;marker-mid:none;marker-end:none;paint-order:normal" id="path870" d="m 175.34499,424.02062 c -24.661,4.08226 -60.18056,22.01925 -69.18502,28.18484 -7.932853,5.43184 -10.801193,13.70196 -10.925233,20.94538 -0.72438,42.30084 10.273313,88.0482 7.561093,130.50252 -1.21026,18.94414 -7.437413,51.01218 -9.969593,64.24176 -1.65073,6.85296 -2.50133,13.87513 -2.53464,20.92508 2.7e-4,50.2338 40.610433,90.95628 90.705683,90.95655 45.46938,-0.0495 82.39643,-34.07041 89.82748,-79.05254 10.66083,-64.53278 10.42629,-136.39723 11.98541,-204.91567 0.28464,-12.50912 -1.94334,-23.29335 -8.32377,-31.80289 -13.26086,-21.57098 -66.73071,-40.02924 -66.73071,-40.02924 v 7.19061 h -32.4107 z"/><path style="color:#000;overflow:visible;opacity:1;vector-effect:none;fill:#eeeeec;fill-opacity:1;stroke:#babdb6;stroke-width:2;stroke-linecap:butt;stroke-linejoin:bevel;stroke-miterlimit:4;stroke-dasharray:none;stroke-dashoffset:0;stroke-opacity:1;marker:none;marker-start:none;marker-mid:none;marker-end:none;paint-order:normal" id="rect913" d="m 208.56756,431.16702 -3,141.31424 c -0.14923,7.02936 -6.07063,12.69123 -13.61129,12.69123 -7.54065,0 -13.46205,-5.66187 -13.61128,-12.69123 l -3,-141.31424 z"/><path id="path950" d="m 95.373251,486.43435 c 38.955159,101.12102 48.667459,140.67087 51.422819,177.84397 2.03646,27.47435 -36.96151,79.62933 -36.96151,79.62933 0,0 -24.033873,-37.15986 -19.463976,-61.45137 10.258966,-54.53208 19.996276,-75.99616 5.002667,-196.02193 z" style="color:#000;overflow:visible;opacity:1;vector-effect:none;fill:none;fill-opacity:1;stroke:#bfc2bb;stroke-width:1;stroke-linecap:square;stroke-linejoin:miter;stroke-miterlimit:4;stroke-dasharray:none;stroke-dashoffset:0;stroke-opacity:1;marker:none;marker-start:none;marker-mid:none;marker-end:none;paint-order:normal"/><path style="color:#000;overflow:visible;opacity:1;vector-effect:none;fill:#fff;fill-opacity:1;stroke:#babdb6;stroke-width:1;stroke-linecap:butt;stroke-linejoin:bevel;stroke-miterlimit:4;stroke-dasharray:none;stroke-dashoffset:0;stroke-opacity:1;marker:none;marker-start:none;marker-mid:none;marker-end:none;paint-order:normal" id="button4" d="m 104.9358,539.80779 c 2.40195,-0.25238 2.7176,0.9048 2.96999,3.30675 l 5.69164,54.1678 c 0.25238,2.40194 -1.47813,4.53882 -3.88008,4.7912 -2.40195,0.25239 -5.44876,-8.75375 -5.55682,-11.1665 l -2.02953,-45.3135 c -0.10806,-2.41275 0.40286,-5.53337 2.8048,-5.78575 z"/><path id="button3" d="m 109.77779,602.64876 c 2.40195,-0.25239 4.53882,1.47813 4.79121,3.88007 l 5.69164,54.1678 c 0.25238,2.40195 -1.47814,4.53883 -3.88008,4.79121 -2.40195,0.25238 -7.77772,-8.87659 -7.89239,-11.28904 l -1.91843,-40.36308 c -0.11466,-2.41244 0.8061,-10.93458 3.20805,-11.18696 z" style="color:#000;overflow:visible;opacity:1;vector-effect:none;fill:#fff;fill-opacity:1;stroke:#babdb6;stroke-width:1;stroke-linecap:butt;stroke-linejoin:bevel;stroke-miterlimit:4;stroke-dasharray:none;stroke-dashoffset:0;stroke-opacity:1;marker:none;marker-start:none;marker-mid:none;marker-end:none;paint-order:normal"/><rect style="color:#000;overflow:visible;opacity:1;vector-effect:none;fill:#fff;fill-opacity:1;stroke:#babdb6;stroke-width:1;stroke-linecap:butt;stroke-linejoin:bevel;stroke-miterlimit:4;stroke-dasharray:none;stroke-dashoffset:0;stroke-opacity:1;marker:none;marker-start:none;marker-mid:none;marker-end:none;paint-order:normal" id="button2" width="23.156" height="69.468" x="180.554" y="454.991" rx="11.578" ry="11.578"/><path id="button5" d="m 201.20722,545.97605 -0.65676,17.92859 c -0.16469,4.49569 -3.83301,8.12045 -8.59419,8.12045 -4.76117,0 -8.49995,-3.62273 -8.59417,-8.12045 l -0.65677,-17.92859 z" style="color:#000;overflow:visible;opacity:1;vector-effect:none;fill:#fff;fill-opacity:1;stroke:#babdb6;stroke-width:1;stroke-linecap:butt;stroke-linejoin:bevel;stroke-miterlimit:4;stroke-dasharray:none;stroke-dashoffset:0;stroke-opacity:1;marker:none;marker-start:none;marker-mid:none;marker-end:none;paint-order:normal"/><path style="color:#000;overflow:visible;opacity:1;vector-effect:none;fill:none;fill-opacity:1;stroke:#bfc2bb;stroke-width:1;stroke-linecap:square;stroke-linejoin:miter;stroke-miterlimit:4;stroke-dasharray:none;stroke-dashoffset:0;stroke-opacity:1;marker:none;marker-start:none;marker-mid:none;marker-end:none;paint-order:normal" id="path946" d="m 281.45725,491.14612 c -30.15796,102.59778 -42.11413,137.63368 -50.74442,173.1322 -6.50823,26.76995 22.13723,79.62933 22.13723,79.62933 0,0 13.58979,-21.97214 16.0745,-32.60727 16.80373,-71.92371 12.53269,-220.15426 12.53269,-220.15426 z"/><path id="button0" d="m 174.91314,423.64614 3.0021,129.78071 -48.65044,25.07759 -32.826242,-92.02794 c -1.027151,-19.85446 -0.810142,-28.0624 15.700932,-37.87909 17.32775,-10.30224 41.981,-20.75843 62.77365,-24.95127 z" style="color:#000;overflow:visible;opacity:1;vector-effect:none;fill:#d3d3ce;fill-opacity:1;stroke:#bfc2bb;stroke-width:1.98825693;stroke-linecap:square;stroke-linejoin:miter;stroke-miterlimit:4;stroke-dasharray:none;stroke-dashoffset:0;stroke-opacity:1;marker:none;marker-start:none;marker-mid:none;marker-end:none;paint-order:normal"/><path style="color:#000;overflow:visible;opacity:1;vector-effect:none;fill:#d3d3ce;fill-opacity:1;stroke:#bfc2bb;stroke-width:2;stroke-linecap:square;stroke-linejoin:miter;stroke-miterlimit:4;stroke-dasharray:none;stroke-dashoffset:0;stroke-opacity:1;marker:none;marker-start:none;marker-mid:none;marker-end:none;paint-order:normal" id="button1" d="m 207.75569,423.97641 -1.77476,128.93066 47.9684,25.54626 27.50793,-87.30721 c 4.86457,-36.68335 -44.6715,-55.30429 -73.70157,-67.16971 z"/><g style="display:inline" id="g1304" transform="translate(337.51617,-37.32483)"><ellipse id="ellipse1298" cx="-145.511" cy="614.464" rx="1.814" ry="1.938" style="fill:#babdb6;fill-opacity:1;stroke:#000;stroke-width:0;stroke-miterlimit:4;stroke-dasharray:none"/></g></g><g id="Buttons" transform="translate(-68.791597,9.994236)" style="display:inline"><g id="button1-path"><path style="color:#000;overflow:visible;opacity:1;vector-effect:none;fill:none;fill-opacity:1;stroke:#888a85;stroke-width:1;stroke-linecap:square;stroke-linejoin:miter;stroke-miterlimit:4;stroke-dasharray:none;stroke-dashoffset:0;stroke-opacity:1;marker:none;marker-start:none;marker-mid:none;marker-end:none;paint-order:normal" id="path958" d="M 242.94764,50.505764 H 477"/><rect style="color:#000;overflow:visible;opacity:1;vector-effect:none;fill:#2e3436;fill-opacity:1;stroke:none;stroke-width:2;stroke-linecap:square;stroke-linejoin:miter;stroke-miterlimit:4;stroke-dasharray:none;stroke-dashoffset:0;stroke-opacity:1;marker:none;marker-start:none;marker-mid:none;marker-end:none;paint-order:normal" id="rect968" width="7" height="7" x="237" y="47.006"/><rect style="color:#000;text-align:start;overflow:visible;vector-effect:none;fill:#888a85;fill-opacity:1;stroke:none;stroke-linecap:round" id="button1-leader" width="1" height="1" x="477" y="50.006"/></g><g id="button0-path"><path id="path960" d="M 477,130.50576 H 161.34398" style="color:#000;overflow:visible;opacity:1;vector-effect:none;fill:none;fill-opacity:1;stroke:#888a85;stroke-width:1;stroke-linecap:square;stroke-linejoin:miter;stroke-miterlimit:4;stroke-dasharray:none;stroke-dashoffset:0;stroke-opacity:1;marker:none;marker-start:none;marker-mid:none;marker-end:none;paint-order:normal"/><rect id="rect970" width="7" height="7" x="157" y="127.006" style="color:#000;overflow:visible;opacity:1;vector-effect:none;fill:#2e3436;fill-opacity:1;stroke:none;stroke-width:2;stroke-linecap:square;stroke-linejoin:miter;stroke-miterlimit:4;stroke-dasharray:none;stroke-dashoffset:0;stroke-opacity:1;marker:none;marker-start:none;marker-mid:none;marker-end:none;paint-order:normal"/><rect style="color:#000;text-align:start;overflow:visible;vector-effect:none;fill:#888a85;fill-opacity:1;stroke:none;stroke-linecap:round" id="button0-leader" width="1" height="1" x="477" y="130.006"/></g><g id="button4-path"><path id="path964" d="M 109.31232,181.51438 137.74787,210.44326 477,210.50576" style="color:#000;overflow:visible;opacity:1;vector-effect:none;fill:none;fill-opacity:1;stroke:#888a85;stroke-width:.99999994;stroke-linecap:square;stroke-linejoin:miter;stroke-miterlimit:4;stroke-dasharray:none;stroke-dashoffset:0;stroke-opacity:1;marker:none;marker-start:none;marker-mid:none;marker-end:none;paint-order:normal"/><rect style="color:#000;text-align:start;overflow:visible;vector-effect:none;fill:#888a85;fill-opacity:1;stroke:none;stroke-linecap:round" id="button4-leader" width="1" height="1" x="477" y="210.006"/><rect id="rect974" width="7" height="7" x="105" y="177" style="color:#000;overflow:visible;opacity:1;vector-effect:none;fill:#2e3436;fill-opacity:1;stroke:none;stroke-width:2;stroke-linecap:square;stroke-linejoin:miter;stroke-miterlimit:4;stroke-dasharray:none;stroke-dashoffset:0;stroke-opacity:1;marker:none;marker-start:none;marker-mid:none;marker-end:none;paint-order:normal"/></g><g id="button2-path"><rect id="button2-leader" width="1" height="1" x="477" y="90.006" style="color:#000;text-align:start;overflow:visible;vector-effect:none;fill:#888a85;fill-opacity:1;stroke:none;stroke-linecap:round"/><path style="color:#000;overflow:visible;opacity:1;vector-effect:none;fill:none;fill-opacity:1;stroke:#888a85;stroke-width:1;stroke-linecap:square;stroke-linejoin:miter;stroke-miterlimit:4;stroke-dasharray:none;stroke-dashoffset:0;stroke-opacity:1;marker:none;marker-start:none;marker-mid:none;marker-end:none;paint-order:normal" id="path908" d="m 195.97852,108.49147 17.9857,-17.98571 H 477"/><rect style="color:#000;overflow:visible;opacity:1;vector-effect:none;fill:#2e3436;fill-opacity:1;stroke:none;stroke-width:2;stroke-linecap:square;stroke-linejoin:miter;stroke-miterlimit:4;stroke-dasharray:none;stroke-dashoffset:0;stroke-opacity:1;marker:none;marker-start:none;marker-mid:none;marker-end:none;paint-order:normal" id="rect910" width="7" height="7" x="194" y="104"/></g><g id="button3-path"><path style="color:#000;overflow:visible;opacity:1;vector-effect:none;fill:none;fill-opacity:1;stroke:#888a85;stroke-width:1;stroke-linecap:square;stroke-linejoin:miter;stroke-miterlimit:4;stroke-dasharray:none;stroke-dashoffset:0;stroke-opacity:1;marker:none;marker-start:none;marker-mid:none;marker-end:none;paint-order:normal" id="path966" d="M 114.17805,250.50576 H 477"/><rect style="color:#000;overflow:visible;opacity:1;vector-effect:none;fill:#2e3436;fill-opacity:1;stroke:none;stroke-width:2;stroke-linecap:square;stroke-linejoin:miter;stroke-miterlimit:4;stroke-dasharray:none;stroke-dashoffset:0;stroke-opacity:1;marker:none;marker-start:none;marker-mid:none;marker-end:none;paint-order:normal" id="rect976" width="7" height="7" x="108" y="247.006"/><rect id="button3-leader" width="1" height="1" x="477" y="250.006" style="color:#000;text-align:start;overflow:visible;vector-effect:none;fill:#888a85;fill-opacity:1;stroke:none;stroke-linecap:round"/></g><g id="button5-path" transform="translate(0,-6)"><path style="color:#000;overflow:visible;opacity:1;vector-effect:none;fill:none;fill-opacity:1;stroke:#888a85;stroke-width:.99999994;stroke-linecap:square;stroke-linejoin:miter;stroke-miterlimit:4;stroke-dasharray:none;stroke-dashoffset:0;stroke-opacity:1;marker:none;marker-start:none;marker-mid:none;marker-end:none;paint-order:normal" id="path51" d="M 476.55132,170.50615 H 193.34398"/><rect style="color:#000;overflow:visible;opacity:1;vector-effect:none;fill:#2e3436;fill-opacity:1;stroke:none;stroke-width:2;stroke-linecap:square;stroke-linejoin:miter;stroke-miterlimit:4;stroke-dasharray:none;stroke-dashoffset:0;stroke-opacity:1;marker:none;marker-start:none;marker-mid:none;marker-end:none;paint-order:normal" id="rect53" width="7" height="7" x="189" y="167"/><rect id="button5-leader" width="1" height="1" x="477" y="170" style="color:#000;text-align:start;overflow:visible;vector-effect:none;fill:#888a85;fill-opacity:1;stroke:none;stroke-linecap:round"/></g></g></svg>