<svg xmlns="http://www.w3.org/2000/svg" xmlns:svg="http://www.w3.org/2000/svg" id="svg8" width="482.654" height="409.757" version="1.1" viewBox="0 0 482.654 409.757"><metadata id="metadata5"/><g id="Device" transform="translate(36.653757,-393.71139)" style="display:inline"><path style="color:#000;display:inline;overflow:visible;visibility:visible;opacity:1;fill:#d3d3ce;fill-opacity:1;fill-rule:nonzero;stroke:#babdb6;stroke-width:3;stroke-linecap:butt;stroke-linejoin:round;stroke-miterlimit:4;stroke-dasharray:none;stroke-dashoffset:0;stroke-opacity:1;marker:none;enable-background:accumulate" id="path4382" d="m 122.82453,740.37034 c -19.02281,-23.41625 -31.616134,-52.28805 -34.233943,-82.34359 -2.096443,-24.06963 2.128869,-48.32241 8.95101,-71.5 2.158331,-7.33273 4.577033,-14.58882 7.250003,-21.75 -1.3982,-18.81093 -1.06298,-37.75033 1,-56.5 2.52814,-22.97724 7.65448,-45.66761 15.25,-67.5 l 13.25,-11.25 141.5,-5.25 c 12.02953,26.7963 18.37607,56.12763 18.5,85.5 0.12121,28.72967 -5.62197,57.27681 -5,86 0.24638,11.37797 1.49774,22.75148 4.0739,33.8367 3.20755,13.80209 8.47842,27.26326 9.22845,41.4133 0.66161,12.48182 -2.27756,24.99565 -7.36927,36.41091 -5.0917,11.41525 -12.28663,21.79231 -20.30154,31.38369 -9.49466,11.36219 -20.28557,21.78699 -32.84623,29.62777 -12.56066,7.84078 -26.98545,13.02513 -41.78531,13.48575 -15.18013,0.47246 -30.29151,-4.05272 -43.44909,-11.63807 -13.15758,-7.58536 -24.44174,-18.13853 -34.01798,-29.92646 z"/><path style="color:#000;display:inline;overflow:visible;visibility:visible;opacity:1;fill:#d3d3ce;fill-opacity:1;fill-rule:nonzero;stroke:#babdb6;stroke-width:1;stroke-linecap:butt;stroke-linejoin:round;stroke-miterlimit:4;stroke-dasharray:none;stroke-dashoffset:0;stroke-opacity:1;marker:none;enable-background:accumulate" id="path4378" d="m 134.2916,429.52675 -12.75,12.5 c -12.31411,36.57641 -16.0253,76.01857 -10.75,114.25 6.1427,44.5177 24.24594,87.57778 23,132.5 -0.49267,17.76334 -4.06145,35.43727 -10.5,52 8.39201,13.20649 20.3144,24.14654 34.19206,31.37481 13.87766,7.22828 29.67603,10.72678 45.30794,10.03331 29.20955,-1.29581 57.30887,-17.926 72.5,-42.90812 -6.99047,-28.36406 -8.86284,-57.98142 -5.5,-87 5.139,-44.34544 22.31262,-86.91141 24.5,-131.5 1.63092,-33.24546 -5.32115,-66.87607 -20,-96.75 l -14,-9.49452 c -20.53616,-0.82089 -41.13517,-0.0647 -61.55586,2.25985 -21.78053,2.4793 -43.35766,6.74311 -64.44414,12.73467 z"/><path style="fill:none;fill-rule:evenodd;stroke:#babdb6;stroke-width:1px;stroke-linecap:butt;stroke-linejoin:miter;stroke-opacity:1" id="path4401" d="m 102.95061,567.96501 c 0.70002,22.44793 2.65772,43.37669 3.30638,62.88708 0.52948,15.92576 7.34749,40.38934 -4.69813,38.78754 -4.929835,-0.65556 -12.883112,-9.26574 -13.017313,-24.73788"/><path style="color:#000;display:inline;overflow:visible;opacity:1;fill:#fff;fill-opacity:1;stroke:#babdb6;stroke-width:1;stroke-linecap:butt;stroke-linejoin:bevel;stroke-miterlimit:4;stroke-dasharray:none;stroke-dashoffset:0;stroke-opacity:1;marker:none;marker-start:none;marker-mid:none;marker-end:none;paint-order:normal" id="button4" d="m 104.14503,591.78576 c 2.70152,2.04148 8.34731,2.78189 8.46463,3.52635 l 7.53906,47.84087 c 0.37596,2.38573 -1.6214,1.86287 -1.6214,1.86287 -2.38894,0.35504 -11.76758,-6.66231 -11.90814,-9.07339 l -1.90715,-32.71 c -0.14062,-2.41107 -0.567,-11.4467 -0.567,-11.4467 z"/><path style="color:#000;overflow:visible;opacity:1;fill:#fff;fill-opacity:1;stroke:#babdb6;stroke-width:1;stroke-linecap:butt;stroke-linejoin:bevel;stroke-miterlimit:4;stroke-dasharray:none;stroke-dashoffset:0;stroke-opacity:1;marker:none;marker-start:none;marker-mid:none;marker-end:none;paint-order:normal" id="button3" d="m 105.59036,538.91245 c 0.52253,-0.12564 0.84775,3.74005 1.08254,6.14378 l 4.20424,41.21202 -6.91297,-2.23542 -3.04198,-39.25359 c -0.1866,-2.40794 2.31991,-5.30229 4.66817,-5.86679 z"/><path style="color:#000;overflow:visible;opacity:1;fill:#eeeeec;fill-opacity:1;stroke:#babdb6;stroke-width:1;stroke-linecap:butt;stroke-linejoin:bevel;stroke-miterlimit:4;stroke-dasharray:none;stroke-dashoffset:0;stroke-opacity:1;marker:none;marker-start:none;marker-mid:none;marker-end:none;paint-order:normal" id="rect913" d="m 216.66981,463.35766 c 7.7882,31.51628 -3.10225,161.1236 -3.10225,161.1236 -0.13535,7.02963 -6.07063,10.44123 -13.61129,10.44123 -7.54065,0 -13.50233,-3.41113 -13.61128,-10.44123 0,0 -10.54298,-129.82998 -2.5,-161.31424 8.04298,-31.48426 11.005,-29.3064 16.58919,-29.26346 5.58419,0.0429 8.44743,-2.06218 16.23563,29.4541 z"/><rect style="color:#000;overflow:visible;opacity:1;fill:#fff;fill-opacity:1;stroke:#babdb6;stroke-width:1;stroke-linecap:butt;stroke-linejoin:bevel;stroke-miterlimit:4;stroke-dasharray:none;stroke-dashoffset:0;stroke-opacity:1;marker:none;marker-start:none;marker-mid:none;marker-end:none;paint-order:normal" id="button2" width="23.156" height="57.718" x="188.554" y="461.019" rx="11.578" ry="11.578"/><path id="button7" d="m 209.20722,524.3296 -0.65676,27.92859 -17.18836,0 -0.65677,-27.92859 z" style="color:#000;overflow:visible;opacity:1;fill:#fff;fill-opacity:1;stroke:#babdb6;stroke-width:1;stroke-linecap:butt;stroke-linejoin:bevel;stroke-miterlimit:4;stroke-dasharray:none;stroke-dashoffset:0;stroke-opacity:1;marker:none;marker-start:none;marker-mid:none;marker-end:none;paint-order:normal"/><path style="color:#000;overflow:visible;opacity:1;fill:#fff;fill-opacity:1;stroke:#babdb6;stroke-width:1;stroke-linecap:butt;stroke-linejoin:bevel;stroke-miterlimit:4;stroke-dasharray:none;stroke-dashoffset:0;stroke-opacity:1;marker:none;marker-start:none;marker-mid:none;marker-end:none;paint-order:normal" id="button8" d="m 208.41172,565.23341 -1.86126,32.17123 c -0.25984,4.4912 -1.83301,4.12045 -6.59419,4.12045 -4.76117,0 -6.33658,0.37088 -6.59417,-4.12045 l -1.94966,-31.99445 z"/><path style="color:#000;display:inline;overflow:visible;visibility:visible;opacity:1;fill:#d3d3ce;fill-opacity:1;fill-rule:nonzero;stroke:#babdb6;stroke-width:1;stroke-linecap:butt;stroke-linejoin:round;stroke-miterlimit:4;stroke-dasharray:none;stroke-dashoffset:0;stroke-opacity:1;marker:none;enable-background:accumulate" id="button0" d="m 199.58066,416.69667 c -0.28142,0.0314 -0.56434,0.0637 -0.8457,0.0957 -21.78053,2.47931 -43.35688,6.74282 -64.44336,12.73438 l -5.24219,5.13867 c -4.63188,14.23762 -6.48452,22.56972 -10.85742,51.73047 -2.31322,15.42571 0.0333,42.97083 4.37695,70.53516 20.18393,0.10496 59.33211,-0.93056 59.53906,0.375 l 0.0371,-0.30274 c -1.67671,-36.75209 -2.37374,-77.8923 1.69922,-93.83594 6.49241,-25.41455 9.67504,-28.8908 13.59766,-29.26562 l 2.25586,-0.10352 z"/><path style="color:#000;overflow:visible;opacity:1;fill:#fff;fill-opacity:1;stroke:#babdb6;stroke-width:1;stroke-linecap:butt;stroke-linejoin:bevel;stroke-miterlimit:4;stroke-dasharray:none;stroke-dashoffset:0;stroke-opacity:1;marker:none;marker-start:none;marker-mid:none;marker-end:none;paint-order:normal" id="path4391" d="m 208.55097,552.1948 -5e-4,13.20984 -17.18836,0 -5.2e-4,-13.17859 z"/><path id="button9" d="m 206.55097,441.9448 1.9995,15.20984 -17.18836,0 1.99948,-15.17859 z" style="color:#000;overflow:visible;opacity:1;fill:#fff;fill-opacity:1;stroke:#babdb6;stroke-width:1;stroke-linecap:butt;stroke-linejoin:bevel;stroke-miterlimit:4;stroke-dasharray:none;stroke-dashoffset:0;stroke-opacity:1;marker:none;marker-start:none;marker-mid:none;marker-end:none;paint-order:normal"/><path style="color:#000;display:inline;overflow:visible;visibility:visible;opacity:1;fill:#d3d3ce;fill-opacity:1;fill-rule:nonzero;stroke:#babdb6;stroke-width:1;stroke-linecap:butt;stroke-linejoin:round;stroke-miterlimit:4;stroke-dasharray:none;stroke-dashoffset:0;stroke-opacity:1;marker:none;enable-background:accumulate" id="button1" d="m 245.09433,414.2123 c -15.20199,-0.0324 -30.40556,0.79698 -45.51367,2.48437 l 0.33399,17.16016 1.96093,0.0351 c 4.68444,-0.0473 7.71457,0.81299 14.79493,29.46485 3.87599,15.68486 3.12444,55.66092 1.39257,91.86914 l 0.23829,1.79297 60.07421,0.69336 c 8.82289,-52.62093 4.27435,-90.98774 -13.62695,-139.62696 l -0.13281,-0.62109 -4.32422,-2.93164 c -5.0633,-0.2024 -10.12994,-0.30953 -15.19727,-0.32031 z"/><path id="led0" d="m 290.24244,554.46605 c -5.26976,49.56099 -36.23031,99.47705 -15.28225,184.71113 -3.16837,4.44852 -3.173,4.56365 -8.05566,10.86971 -17.84401,-50.57656 -7.8566,-125.64401 4.04428,-156.62518 17.6011,-72.50699 15.50543,-116.35777 -6.20089,-175.33551 l 9.29158,5.5835 c 10.82003,25.11299 27.5667,64.49596 16.20294,130.79635 z m -180.19239,-2.47487 c 7.61079,68.82965 34.53563,125.64 13.2841,188.42344 3.24708,3.97977 8.53092,12.44446 12.34811,15.28913 18.99515,-41.57656 13.57812,-98.28741 2.86138,-129.26858 -11.32886,-31.75516 -24.92286,-109.55879 -20.35212,-140.03876 4.57073,-30.47997 6.3548,-38.13399 11.4734,-53.63774 l -10.11812,10.8868 c -9.96888,31.30753 -13.36232,66.4405 -9.49675,108.34571 z" style="fill:#babdb6;fill-opacity:1;fill-rule:evenodd;stroke:none;stroke-width:1px;stroke-linecap:butt;stroke-linejoin:miter;stroke-opacity:1"/><path id="button6" d="m 221.59975,489.94486 0,7.97552 3.83318,-3.83321 z" style="color:#000;display:inline;overflow:visible;opacity:1;fill:#888a85;fill-opacity:1;stroke:none;stroke-width:1;stroke-linecap:butt;stroke-linejoin:bevel;stroke-miterlimit:4;stroke-dasharray:none;stroke-dashoffset:0;stroke-opacity:1;marker:none;marker-start:none;marker-mid:none;marker-end:none;paint-order:normal"/><path style="color:#000;display:inline;overflow:visible;opacity:1;fill:#888a85;fill-opacity:1;stroke:none;stroke-width:1;stroke-linecap:butt;stroke-linejoin:bevel;stroke-miterlimit:4;stroke-dasharray:none;stroke-dashoffset:0;stroke-opacity:1;marker:none;marker-start:none;marker-mid:none;marker-end:none;paint-order:normal" id="button5" d="m 178.14034,489.94486 0,7.97552 -3.83318,-3.83321 z"/></g><g id="Buttons" transform="translate(36.653757,6.2887068)" style="display:inline"><g id="button1-path" transform="translate(8,111.99976)"><path style="color:#000;overflow:visible;opacity:1;fill:none;fill-opacity:1;stroke:#888a85;stroke-width:1;stroke-linecap:square;stroke-linejoin:miter;stroke-miterlimit:4;stroke-dasharray:none;stroke-dashoffset:0;stroke-opacity:1;marker:none;marker-start:none;marker-mid:none;marker-end:none;paint-order:normal" id="path958" d="M 221.19764,23.005764 248.71312,50.628685 437,50.505764"/><rect style="color:#000;overflow:visible;opacity:1;fill:#2e3436;fill-opacity:1;stroke:none;stroke-width:2;stroke-linecap:square;stroke-linejoin:miter;stroke-miterlimit:4;stroke-dasharray:none;stroke-dashoffset:0;stroke-opacity:1;marker:none;marker-start:none;marker-mid:none;marker-end:none;paint-order:normal" id="rect968" width="7" height="7" x="217.125" y="19.256"/><rect style="color:#000;text-align:start;overflow:visible;fill:#888a85;fill-opacity:1;stroke:none;stroke-linecap:round" id="button1-leader" width="1" height="1" x="437" y="50.006"/></g><g id="button9-path" transform="translate(8,-88)"><path id="path960" d="m 437,130.50576 -237.65602,0 -3.89602,3.89602" style="color:#000;overflow:visible;opacity:1;fill:none;fill-opacity:1;stroke:#888a85;stroke-width:1;stroke-linecap:square;stroke-linejoin:miter;stroke-miterlimit:4;stroke-dasharray:none;stroke-dashoffset:0;stroke-opacity:1;marker:none;marker-start:none;marker-mid:none;marker-end:none;paint-order:normal"/><rect id="rect970" width="7" height="7" x="189" y="133.006" style="color:#000;overflow:visible;opacity:1;fill:#2e3436;fill-opacity:1;stroke:none;stroke-width:2;stroke-linecap:square;stroke-linejoin:miter;stroke-miterlimit:4;stroke-dasharray:none;stroke-dashoffset:0;stroke-opacity:1;marker:none;marker-start:none;marker-mid:none;marker-end:none;paint-order:normal"/><rect style="color:#000;text-align:start;overflow:visible;fill:#888a85;fill-opacity:1;stroke:none;stroke-linecap:round" id="button9-leader" width="1" height="1" x="437" y="130.006"/></g><g id="button2-path" transform="translate(8,-8)"><rect id="button2-leader" width="1" height="1" x="437" y="90.006" style="color:#000;text-align:start;overflow:visible;fill:#888a85;fill-opacity:1;stroke:none;stroke-linecap:round"/><path style="color:#000;overflow:visible;opacity:1;fill:none;fill-opacity:1;stroke:#888a85;stroke-width:1;stroke-linecap:square;stroke-linejoin:miter;stroke-miterlimit:4;stroke-dasharray:none;stroke-dashoffset:0;stroke-opacity:1;marker:none;marker-start:none;marker-mid:none;marker-end:none;paint-order:normal" id="path908" d="m 195.97852,94.49147 3.9857,-3.98571 237.03578,0"/><rect style="color:#000;overflow:visible;opacity:1;fill:#2e3436;fill-opacity:1;stroke:none;stroke-width:2;stroke-linecap:square;stroke-linejoin:miter;stroke-miterlimit:4;stroke-dasharray:none;stroke-dashoffset:0;stroke-opacity:1;marker:none;marker-start:none;marker-mid:none;marker-end:none;paint-order:normal" id="rect910" width="7" height="7" x="190" y="92"/></g><g id="button8-path" transform="matrix(1,0,0,-1,8,371.99953)"><path style="color:#000;overflow:visible;opacity:1;fill:none;fill-opacity:1;stroke:#888a85;stroke-width:.99999994;stroke-linecap:square;stroke-linejoin:miter;stroke-miterlimit:4;stroke-dasharray:none;stroke-dashoffset:0;stroke-opacity:1;marker:none;marker-start:none;marker-mid:none;marker-end:none;paint-order:normal" id="path51" d="M 436.55132,170.50615 H 213.34398 l -18.11371,18.15319"/><rect style="color:#000;overflow:visible;opacity:1;fill:#2e3436;fill-opacity:1;stroke:none;stroke-width:2;stroke-linecap:square;stroke-linejoin:miter;stroke-miterlimit:4;stroke-dasharray:none;stroke-dashoffset:0;stroke-opacity:1;marker:none;marker-start:none;marker-mid:none;marker-end:none;paint-order:normal" id="rect53" width="7" height="7" x="189" y="187"/><rect id="button8-leader" width="1" height="1" x="437" y="170" style="color:#000;text-align:start;overflow:visible;fill:#888a85;fill-opacity:1;stroke:none;stroke-linecap:round"/></g><g style="display:inline" id="button7-path" transform="translate(-72.0872,-77.953227)"><path style="color:#000;overflow:visible;opacity:1;fill:none;fill-opacity:1;stroke:#888a85;stroke-width:1;stroke-linecap:square;stroke-linejoin:miter;stroke-miterlimit:4;stroke-dasharray:none;stroke-dashoffset:0;stroke-opacity:1;marker:none;marker-start:none;marker-mid:none;marker-end:none;paint-order:normal" id="path1502" d="m 37.16895,300.50027 59.327469,0 79.344411,-79.98695 96.85261,0"/><rect style="color:#000;overflow:visible;opacity:1;fill:#2e3436;fill-opacity:1;stroke:none;stroke-width:2;stroke-linecap:square;stroke-linejoin:miter;stroke-miterlimit:4;stroke-dasharray:none;stroke-dashoffset:0;stroke-opacity:1;marker:none;marker-start:none;marker-mid:none;marker-end:none;paint-order:normal" id="rect1504" width="7" height="7" x="-276.003" y="-223.985" transform="scale(-1,-1)"/><rect style="color:#000;text-align:end;overflow:visible;fill:#888a85;fill-opacity:1;stroke:none;stroke-linecap:round" id="button7-leader" width="1" height="1" x="-37.169" y="-301" transform="scale(-1,-1)"/></g><g style="display:inline" id="button4-path" transform="translate(-72.82271,-38.03545)"><path id="path1506" d="m 37.16895,340.50027 60.200651,0 87.698379,-87.55322" style="color:#000;overflow:visible;opacity:1;fill:none;fill-opacity:1;stroke:#888a85;stroke-width:1;stroke-linecap:square;stroke-linejoin:miter;stroke-miterlimit:4;stroke-dasharray:none;stroke-dashoffset:0;stroke-opacity:1;marker:none;marker-start:none;marker-mid:none;marker-end:none;paint-order:normal"/><rect id="rect1508" width="7" height="7" x="-187.05" y="-257.982" transform="scale(-1,-1)" style="color:#000;overflow:visible;opacity:1;fill:#2e3436;fill-opacity:1;stroke:none;stroke-width:2;stroke-linecap:square;stroke-linejoin:miter;stroke-miterlimit:4;stroke-dasharray:none;stroke-dashoffset:0;stroke-opacity:1;marker:none;marker-start:none;marker-mid:none;marker-end:none;paint-order:normal"/><rect id="button4-leader" width="1" height="1" x="-37.169" y="-341" transform="scale(-1,-1)" style="color:#000;text-align:end;overflow:visible;fill:#888a85;fill-opacity:1;stroke:none;stroke-linecap:round"/></g><g id="button3-path" transform="translate(-72.82271,-78.03545)" style="display:inline"><path style="color:#000;overflow:visible;opacity:1;fill:none;fill-opacity:1;stroke:#888a85;stroke-width:1;stroke-linecap:square;stroke-linejoin:miter;stroke-miterlimit:4;stroke-dasharray:none;stroke-dashoffset:0;stroke-opacity:1;marker:none;marker-start:none;marker-mid:none;marker-end:none;paint-order:normal" id="path5817" d="m 37.16895,340.50027 60.200651,0 83.698379,-83.55322"/><rect style="color:#000;overflow:visible;opacity:1;fill:#2e3436;fill-opacity:1;stroke:none;stroke-width:2;stroke-linecap:square;stroke-linejoin:miter;stroke-miterlimit:4;stroke-dasharray:none;stroke-dashoffset:0;stroke-opacity:1;marker:none;marker-start:none;marker-mid:none;marker-end:none;paint-order:normal" id="rect5819" width="7" height="7" x="-183.05" y="-261.982" transform="scale(-1,-1)"/><rect style="color:#000;text-align:end;overflow:visible;fill:#888a85;fill-opacity:1;stroke:none;stroke-linecap:round" id="button3-leader" width="1" height="1" x="-37.169" y="-341" transform="scale(-1,-1)"/></g><g id="button0-path" transform="translate(-72.0872,-177.95275)" style="display:inline"><path id="button0-line" d="m 37.16895,320.50027 h 59.327469 l 99.344411,-99.98695 h 26.85261" style="color:#000;overflow:visible;opacity:1;fill:none;fill-opacity:1;stroke:#888a85;stroke-width:1;stroke-linecap:square;stroke-linejoin:miter;stroke-miterlimit:4;stroke-dasharray:none;stroke-dashoffset:0;stroke-opacity:1;marker:none;marker-start:none;marker-mid:none;marker-end:none;paint-order:normal"/><rect id="button0-rect" width="7" height="7" x="-226.003" y="-223.985" transform="scale(-1)" style="color:#000;overflow:visible;opacity:1;fill:#2e3436;fill-opacity:1;stroke:none;stroke-width:2;stroke-linecap:square;stroke-linejoin:miter;stroke-miterlimit:4;stroke-dasharray:none;stroke-dashoffset:0;stroke-opacity:1;marker:none;marker-start:none;marker-mid:none;marker-end:none;paint-order:normal"/><rect id="button0-leader" width="1" height="1" x="-37.169" y="-321" transform="scale(-1)" style="color:#000;text-align:end;overflow:visible;fill:#888a85;fill-opacity:1;stroke:none;stroke-linecap:round"/></g><g style="display:inline" id="button5-path" transform="translate(-72.0872,-137.95275)"><path style="color:#000;overflow:visible;opacity:1;fill:none;fill-opacity:1;stroke:#888a85;stroke-width:1;stroke-linecap:square;stroke-linejoin:miter;stroke-miterlimit:4;stroke-dasharray:none;stroke-dashoffset:0;stroke-opacity:1;marker:none;marker-start:none;marker-mid:none;marker-end:none;paint-order:normal" id="path85" d="m 37.16895,320.50027 h 59.327469 l 88.152021,-88.86195 h 55.67"/><rect style="color:#000;overflow:visible;opacity:1;fill:#2e3436;fill-opacity:1;stroke:none;stroke-width:2;stroke-linecap:square;stroke-linejoin:miter;stroke-miterlimit:4;stroke-dasharray:none;stroke-dashoffset:0;stroke-opacity:1;marker:none;marker-start:none;marker-mid:none;marker-end:none;paint-order:normal" id="rect87" width="7" height="7" x="-244.003" y="-235.485" transform="scale(-1)"/><rect style="color:#000;text-align:end;overflow:visible;fill:#888a85;fill-opacity:1;stroke:none;stroke-linecap:round" id="button5-leader" width="1" height="1" x="-37.169" y="-321" transform="scale(-1)"/></g><g id="button6-path" transform="translate(10.625,71.49976)"><path id="path93" d="m 221.19764,23.005764 27.51548,27.622921 185.72362,-0.122921" style="color:#000;overflow:visible;opacity:1;fill:none;fill-opacity:1;stroke:#888a85;stroke-width:1;stroke-linecap:square;stroke-linejoin:miter;stroke-miterlimit:4;stroke-dasharray:none;stroke-dashoffset:0;stroke-opacity:1;marker:none;marker-start:none;marker-mid:none;marker-end:none;paint-order:normal"/><rect id="rect95" width="7" height="7" x="217.125" y="19.256" style="color:#000;overflow:visible;opacity:1;fill:#2e3436;fill-opacity:1;stroke:none;stroke-width:2;stroke-linecap:square;stroke-linejoin:miter;stroke-miterlimit:4;stroke-dasharray:none;stroke-dashoffset:0;stroke-opacity:1;marker:none;marker-start:none;marker-mid:none;marker-end:none;paint-order:normal"/><rect id="button6-leader" width="1" height="1" x="434.375" y="50.006" style="color:#000;text-align:start;overflow:visible;fill:#888a85;fill-opacity:1;stroke:none;stroke-linecap:round"/></g></g><g id="LEDs" transform="translate(36.653757,6.2887068)" style="display:inline"><g id="led0-path" transform="translate(8,56)"><path id="path877" d="m 437,290.50577 -158.35562,0 -18.97696,-18.97696" style="color:#000;display:inline;overflow:visible;opacity:1;fill:none;fill-opacity:1;stroke:#888a85;stroke-width:1;stroke-linecap:square;stroke-linejoin:miter;stroke-miterlimit:4;stroke-dasharray:none;stroke-dashoffset:0;stroke-opacity:1;marker:none;marker-start:none;marker-mid:none;marker-end:none;paint-order:normal"/><rect id="rect879" width="7" height="7" x="256.281" y="269.969" style="color:#000;display:inline;overflow:visible;opacity:1;fill:#2e3436;fill-opacity:1;stroke:none;stroke-width:2;stroke-linecap:square;stroke-linejoin:miter;stroke-miterlimit:4;stroke-dasharray:none;stroke-dashoffset:0;stroke-opacity:1;marker:none;marker-start:none;marker-mid:none;marker-end:none;paint-order:normal"/><rect id="led0-leader" width="1" height="1" x="437" y="290.006" style="color:#000;text-align:start;display:inline;overflow:visible;fill:#888a85;fill-opacity:1;stroke:none;stroke-linecap:round"/></g></g></svg>