<svg xmlns="http://www.w3.org/2000/svg" xmlns:svg="http://www.w3.org/2000/svg" id="svg8" width="490" height="490" version="1.1" viewBox="0 0 129.646 129.646"><metadata id="metadata5"/><g id="Device" transform="translate(0,-167.35416)" style="display:inline;opacity:1"><path style="display:inline;fill:#d3d3ce;fill-opacity:1;fill-rule:evenodd;stroke:#babdb6;stroke-width:.98636663;stroke-linecap:butt;stroke-linejoin:miter;stroke-miterlimit:4;stroke-dasharray:none;stroke-opacity:1" id="path926" d="m 61.118815,173.57187 c -6.81302,0.0662 -11.972394,1.52136 -16.073435,3.37344 -2.88728,1.31189 -4.888218,3.54982 -6.680729,5.62239 -2.215885,3.43407 -3.375386,5.63618 -3.970698,8.86355 -0.919394,7.49385 -0.194949,14.47321 -0.225672,22.62187 -0.0441,2.92144 0.321327,3.9908 0.09533,6.28385 -0.132292,4.05143 -0.413412,7.82174 -0.79375,11.90625 l -0.859895,11.9724 -1.190625,16.27187 c -0.0248,0.94258 -1e-6,1.65364 0.198437,2.57969 0.171855,0.8399 0.352238,1.03153 0.463021,1.52135 0.595312,2.4033 0.529166,3.99631 1.785937,7.2099 2.116666,4.23333 3.604948,6.84609 6.746875,10.71562 3.858506,4.06797 6.928936,5.67685 11.575518,7.34219 4.293136,1.39044 7.919768,1.65835 12.633854,1.78594 0,0 8.340581,-0.39932 12.633718,-1.78976 4.646582,-1.66534 7.717012,-3.27422 11.575518,-7.34219 3.141927,-3.86953 4.630209,-6.48229 6.746875,-10.71562 1.256771,-3.21359 1.190625,-4.8066 1.785937,-7.2099 0.110783,-0.48982 0.291166,-0.68145 0.463021,-1.52135 0.198438,-0.92605 0.223237,-1.63711 0.198437,-2.57969 l -1.190625,-16.27187 -0.717876,-8.98999 c -0.380338,-4.08451 -0.803477,-10.83723 -0.935769,-14.88866 -0.225999,-2.29305 -0.28663,-3.36241 -0.33073,-6.28385 -0.03072,-8.14866 0.835741,-15.12802 -0.08365,-22.62187 -0.595312,-3.22737 -1.470774,-5.42948 -3.686659,-8.86355 -1.792511,-2.07257 -3.793449,-4.3105 -6.680729,-5.62239 -4.101041,-1.85208 -9.260416,-3.30724 -16.073436,-3.37344 -3.028432,-0.0919 -5.294794,0.0499 -7.4082,0.004 z"/><path id="path5205" d="m 68.894015,173.48626 c 0.01741,1.97468 0.845255,8.1474 1.684943,11.60161 1.369264,5.63272 0.266853,23.47034 0.266853,23.47034 0,0 -2.042025,17.37272 -6.022897,17.27166 -3.980871,0.16348 -6.022896,-17.20924 -6.022896,-17.20924 0,0 -1.10241,-17.83762 0.266854,-23.47034 0.839687,-3.45421 1.667532,-9.62693 1.684942,-11.60161 z" style="display:inline;opacity:1;vector-effect:none;fill:#eeeeec;fill-opacity:1;fill-rule:evenodd;stroke:#babdb6;stroke-width:.98636663;stroke-linecap:butt;stroke-linejoin:miter;stroke-miterlimit:4;stroke-dasharray:none;stroke-dashoffset:0;stroke-opacity:1;paint-order:markers fill stroke"/><path style="display:inline;opacity:1;vector-effect:none;fill:#fff;fill-opacity:1;stroke:#babdb6;stroke-width:.98636663;stroke-linecap:butt;stroke-linejoin:miter;stroke-miterlimit:4;stroke-dasharray:none;stroke-dashoffset:0;stroke-opacity:1" id="button7" d="m 64.695108,222.94948 c -0.606916,-0.009 -3.440676,-6.06643 -3.513997,-9.56014 -0.02982,-1.42071 0.176696,-1.66675 3.591511,-1.70532 3.503766,-0.0396 3.702586,0.22584 3.694867,1.62781 -0.01799,3.26716 -3.27008,9.64508 -3.772381,9.63765 z" clip-path="none" mask="none"/><path style="display:inline;opacity:1;vector-effect:none;fill:#eeeeec;fill-opacity:1;stroke:#babdb6;stroke-width:.98636663;stroke-linecap:butt;stroke-linejoin:miter;stroke-miterlimit:4;stroke-dasharray:none;stroke-dashoffset:0;stroke-opacity:1" id="path4742" d="m 95.121771,209.18914 c 0,0 -0.197205,17.71196 -1.241986,33.44373 -0.483924,7.28668 -1.491683,12.97597 -2.130552,18.3934 -0.45519,3.85988 0.58105,6.73694 2.373267,7.24471 1.728139,0.48961 3.747262,-3.87217 3.747262,-3.87217"/><path id="path4744" d="m 34.385075,208.66134 c 0,0 0.197205,17.71196 1.241986,33.44373 0.483924,7.28668 1.491683,12.97597 2.130552,18.3934 0.45519,3.85988 -0.58105,6.73694 -2.373267,7.24471 -1.728139,0.48961 -3.747262,-3.87217 -3.747262,-3.87217" style="display:inline;opacity:1;vector-effect:none;fill:#eeeeec;fill-opacity:1;stroke:#babdb6;stroke-width:.98636663;stroke-linecap:butt;stroke-linejoin:miter;stroke-miterlimit:4;stroke-dasharray:none;stroke-dashoffset:0;stroke-opacity:1"/><path style="display:inline;opacity:1;vector-effect:none;fill:none;fill-opacity:1;stroke:#babdb6;stroke-width:.98636663;stroke-linecap:butt;stroke-linejoin:miter;stroke-miterlimit:4;stroke-dasharray:none;stroke-dashoffset:0;stroke-opacity:1" id="path58" d="m 33.794256,226.79927 0.594666,-18.07871"/><path style="display:inline;opacity:1;vector-effect:none;fill:#fff;fill-opacity:1;stroke:#babdb6;stroke-width:.98636663;stroke-linecap:butt;stroke-linejoin:miter;stroke-miterlimit:4;stroke-dasharray:none;stroke-dashoffset:0;stroke-opacity:1" id="path56" d="m 35.720073,242.99898 c 0,0 -1.305894,-0.86732 -1.520495,-1.08633 -0.214601,-0.21901 -0.406023,-15.1316 -0.406023,-15.1316 l 1.116802,0.0102"/><path style="display:inline;opacity:1;vector-effect:none;fill:none;fill-opacity:1;stroke:#babdb6;stroke-width:.98636663;stroke-linecap:butt;stroke-linejoin:miter;stroke-miterlimit:4;stroke-dasharray:none;stroke-dashoffset:0;stroke-opacity:1" id="path54" d="m 95.452345,226.07744 -0.362533,-16.8175"/><path style="display:inline;opacity:1;vector-effect:none;fill:#fff;fill-opacity:1;stroke:#babdb6;stroke-width:.98636663;stroke-linecap:butt;stroke-linejoin:miter;stroke-miterlimit:4;stroke-dasharray:none;stroke-dashoffset:0;stroke-opacity:1" id="path52" d="m 93.827188,242.82115 c 0,0 1.385456,-0.49501 1.574101,-0.65851 0.188645,-0.16351 0.05639,-16.17317 0.05639,-16.17317 l -0.703725,-0.17593"/><path style="display:inline;opacity:1;fill:none;fill-opacity:.39215686;stroke:#babdb6;stroke-width:3.62082291;stroke-linecap:square;stroke-linejoin:bevel;stroke-miterlimit:4;stroke-dasharray:none;stroke-opacity:1" id="led0" d="m 69.431436,276.07375 a 6.5174346,6.5174413 0 0 1 10e-7,9.21706 6.5174346,6.5174413 0 0 1 -9.217045,0 6.5174346,6.5174413 0 0 1 -10e-7,-9.21705"/><path style="display:inline;opacity:1;vector-effect:none;fill:#fff;fill-opacity:1;stroke:#babdb6;stroke-width:.98636663;stroke-linecap:butt;stroke-linejoin:round;stroke-miterlimit:4;stroke-dasharray:none;stroke-dashoffset:0;stroke-opacity:1;paint-order:normal" id="button2" d="m 62.181167,187.21067 -0.0053,13.99772 c 0.798868,1.60491 0.79411,1.60258 2.56045,1.60804 1.9255,-0.003 1.931661,-0.005 2.733645,-1.59929 l -0.0049,-14.01641 c -0.79057,-1.56574 -0.793119,-1.57885 -2.72281,-1.60756 -1.766557,0.0242 -1.762015,0.025 -2.561099,1.6175 z"/><rect id="button0" width="18.361" height="26.482" x="37.983" y="180.658" style="display:inline;fill:none;stroke-width:.26458332"/><rect id="button1" width="19.067" height="26.835" x="72.056" y="179.952" style="display:inline;fill:none;stroke-width:.26458332"/><rect id="button4" width="3.884" height="16.242" x="32.334" y="209.964" style="display:inline;fill:none;stroke-width:.26458332"/><rect id="button3" width="4.061" height="15.006" x="32.334" y="227.265" style="display:inline;fill:none;stroke-width:.26458332"/><rect id="button5" width="3.178" height="14.653" x="93.595" y="210.67" style="display:inline;fill:none;stroke-width:.26458332"/><rect id="button6" width="3.354" height="15.712" x="93.595" y="226.912" style="display:inline;fill:none;stroke-width:.26458332"/></g><g id="Buttons" transform="translate(0,-2.6458338)" style="display:inline"><g style="display:inline" id="button0-path" transform="matrix(-0.29294531,0,0,0.26458333,70.223399,-40.717196)"><path style="color:#000;overflow:visible;opacity:1;vector-effect:none;fill:none;fill-opacity:1;stroke:#888a85;stroke-width:1;stroke-linecap:square;stroke-linejoin:miter;stroke-miterlimit:4;stroke-dasharray:none;stroke-dashoffset:0;stroke-opacity:1;marker:none;marker-start:none;marker-mid:none;marker-end:none;paint-order:normal" id="path966" d="m 81.663449,250.50576 157.960771,0.0352"/><rect style="color:#000;overflow:visible;opacity:1;vector-effect:none;fill:#2e3436;fill-opacity:1;stroke:none;stroke-width:2;stroke-linecap:square;stroke-linejoin:miter;stroke-miterlimit:4;stroke-dasharray:none;stroke-dashoffset:0;stroke-opacity:1;marker:none;marker-start:none;marker-mid:none;marker-end:none;paint-order:normal" id="rect976" width="7" height="7" x="79.083" y="247.006"/><rect id="button0-leader" width="1" height="1" x="238.624" y="250.006" style="color:#000;text-align:end;overflow:visible;vector-effect:none;fill:#888a85;fill-opacity:1;stroke:none;stroke-linecap:round"/></g><g style="display:inline" id="button1-path" transform="matrix(0.26458333,0,0,0.26458333,40.529257,-19.549003)"><path style="color:#000;overflow:visible;opacity:1;vector-effect:none;fill:none;fill-opacity:1;stroke:#888a85;stroke-width:.99999994;stroke-linecap:square;stroke-linejoin:miter;stroke-miterlimit:4;stroke-dasharray:none;stroke-dashoffset:0;stroke-opacity:1;marker:none;marker-start:none;marker-mid:none;marker-end:none;paint-order:normal" id="path51" d="m 336.91912,170.14213 -183.57514,0.36405"/><rect style="color:#000;overflow:visible;opacity:1;vector-effect:none;fill:#2e3436;fill-opacity:1;stroke:none;stroke-width:2;stroke-linecap:square;stroke-linejoin:miter;stroke-miterlimit:4;stroke-dasharray:none;stroke-dashoffset:0;stroke-opacity:1;marker:none;marker-start:none;marker-mid:none;marker-end:none;paint-order:normal" id="rect53" width="7" height="7" x="149" y="167"/><rect id="button1-leader" width="1" height="1" x="336.919" y="169.753" style="color:#000;text-align:start;overflow:visible;vector-effect:none;fill:#888a85;fill-opacity:1;stroke:none;stroke-linecap:round"/></g><g style="display:inline;opacity:1" id="button2-path" transform="matrix(-0.2847136,0,0,0.26458333,87.395313,-3.7692874)"><path id="path964-6" d="m 79.210952,122.6933 62.691188,68.76371 165.40155,1e-5" style="color:#000;overflow:visible;opacity:1;vector-effect:none;fill:none;fill-opacity:1;stroke:#888a85;stroke-width:.99999994;stroke-linecap:square;stroke-linejoin:miter;stroke-miterlimit:4;stroke-dasharray:none;stroke-dashoffset:0;stroke-opacity:1;marker:none;marker-start:none;marker-mid:none;marker-end:none;paint-order:normal"/><rect style="color:#000;text-align:end;overflow:visible;vector-effect:none;fill:#888a85;fill-opacity:1;stroke:none;stroke-linecap:round" id="button2-leader" width="1" height="1" x="306.405" y="190.934"/><rect id="rect974-5" width="7" height="7" x="76.303" y="117.943" style="color:#000;overflow:visible;opacity:1;vector-effect:none;fill:#2e3436;fill-opacity:1;stroke:none;stroke-width:2;stroke-linecap:square;stroke-linejoin:miter;stroke-miterlimit:4;stroke-dasharray:none;stroke-dashoffset:0;stroke-opacity:1;marker:none;marker-start:none;marker-mid:none;marker-end:none;paint-order:normal"/></g><g style="display:inline" id="button7-path" transform="matrix(0.26458333,0,0,0.26458333,13.523106,5.8698781)"><path style="color:#000;overflow:visible;opacity:1;vector-effect:none;fill:none;fill-opacity:1;stroke:#888a85;stroke-width:.99999994;stroke-linecap:square;stroke-linejoin:miter;stroke-miterlimit:4;stroke-dasharray:none;stroke-dashoffset:0;stroke-opacity:1;marker:none;marker-start:none;marker-mid:none;marker-end:none;paint-order:normal" id="path51-1-9-6-0" d="M 438.5178,161.34199 H 204.22621 l -10.41041,7.75114"/><rect style="color:#000;overflow:visible;opacity:1;vector-effect:none;fill:#2e3436;fill-opacity:1;stroke:none;stroke-width:2;stroke-linecap:square;stroke-linejoin:miter;stroke-miterlimit:4;stroke-dasharray:none;stroke-dashoffset:0;stroke-opacity:1;marker:none;marker-start:none;marker-mid:none;marker-end:none;paint-order:normal" id="rect53-2-3-2-2" width="7" height="7" x="189" y="167"/><rect id="button7-leader" width="1" height="1" x="437.879" y="160.862" style="color:#000;text-align:start;overflow:visible;vector-effect:none;fill:#888a85;fill-opacity:1;stroke:none;stroke-linecap:round"/></g><g id="button3-path" transform="matrix(-0.29294531,0,0,0.26458333,58.364063,-10.132593)" style="display:inline"><path id="path64" d="m 81.659897,250.49954 118.042313,0.0476" style="color:#000;overflow:visible;opacity:1;vector-effect:none;fill:none;fill-opacity:1;stroke:#888a85;stroke-width:1.00572562;stroke-linecap:square;stroke-linejoin:miter;stroke-miterlimit:4;stroke-dasharray:none;stroke-dashoffset:0;stroke-opacity:1;marker:none;marker-start:none;marker-mid:none;marker-end:none;paint-order:normal"/><rect id="rect66" width="7" height="7" x="79.083" y="247.006" style="color:#000;overflow:visible;opacity:1;vector-effect:none;fill:#2e3436;fill-opacity:1;stroke:none;stroke-width:2;stroke-linecap:square;stroke-linejoin:miter;stroke-miterlimit:4;stroke-dasharray:none;stroke-dashoffset:0;stroke-opacity:1;marker:none;marker-start:none;marker-mid:none;marker-end:none;paint-order:normal"/><rect style="color:#000;text-align:end;overflow:visible;vector-effect:none;fill:#888a85;fill-opacity:1;stroke:none;stroke-linecap:round" id="button3-leader" width="1" height="1" x="199.226" y="250.006"/></g><g style="display:inline" id="button4-path" transform="matrix(-0.29294531,0,0,0.26458333,58.488898,4.7227855)"><path style="color:#000;overflow:visible;opacity:1;vector-effect:none;fill:none;fill-opacity:1;stroke:#888a85;stroke-width:1.00572562;stroke-linecap:square;stroke-linejoin:miter;stroke-miterlimit:4;stroke-dasharray:none;stroke-dashoffset:0;stroke-opacity:1;marker:none;marker-start:none;marker-mid:none;marker-end:none;paint-order:normal" id="path72" d="m 81.659897,250.49954 118.042313,0.0476"/><rect style="color:#000;overflow:visible;opacity:1;vector-effect:none;fill:#2e3436;fill-opacity:1;stroke:none;stroke-width:2;stroke-linecap:square;stroke-linejoin:miter;stroke-miterlimit:4;stroke-dasharray:none;stroke-dashoffset:0;stroke-opacity:1;marker:none;marker-start:none;marker-mid:none;marker-end:none;paint-order:normal" id="rect74" width="7" height="7" x="79.083" y="247.006"/><rect id="button4-leader" width="1" height="1" x="199.151" y="250.006" style="color:#000;text-align:end;overflow:visible;vector-effect:none;fill:#888a85;fill-opacity:1;stroke:none;stroke-linecap:round"/></g><g style="display:inline" id="button5-path" transform="matrix(0.29294531,0,0,0.26458333,71.117413,-9.779506)"><path style="color:#000;overflow:visible;opacity:1;vector-effect:none;fill:none;fill-opacity:1;stroke:#888a85;stroke-width:1.00572562;stroke-linecap:square;stroke-linejoin:miter;stroke-miterlimit:4;stroke-dasharray:none;stroke-dashoffset:0;stroke-opacity:1;marker:none;marker-start:none;marker-mid:none;marker-end:none;paint-order:normal" id="path80" d="m 81.659897,250.49954 118.042313,0.0476"/><rect style="color:#000;overflow:visible;opacity:1;vector-effect:none;fill:#2e3436;fill-opacity:1;stroke:none;stroke-width:2;stroke-linecap:square;stroke-linejoin:miter;stroke-miterlimit:4;stroke-dasharray:none;stroke-dashoffset:0;stroke-opacity:1;marker:none;marker-start:none;marker-mid:none;marker-end:none;paint-order:normal" id="rect82" width="7" height="7" x="79.083" y="247.006"/><rect id="button5-leader" width="1" height="1" x="199.226" y="250.006" style="color:#000;text-align:start;overflow:visible;vector-effect:none;fill:#888a85;fill-opacity:1;stroke:none;stroke-linecap:round"/></g><g id="button6-path" transform="matrix(0.29294531,0,0,0.26458333,70.992573,5.0758725)" style="display:inline"><path id="path88" d="m 81.659897,250.49954 118.042313,0.0476" style="color:#000;overflow:visible;opacity:1;vector-effect:none;fill:none;fill-opacity:1;stroke:#888a85;stroke-width:1.00572562;stroke-linecap:square;stroke-linejoin:miter;stroke-miterlimit:4;stroke-dasharray:none;stroke-dashoffset:0;stroke-opacity:1;marker:none;marker-start:none;marker-mid:none;marker-end:none;paint-order:normal"/><rect id="rect90" width="7" height="7" x="79.083" y="247.006" style="color:#000;overflow:visible;opacity:1;vector-effect:none;fill:#2e3436;fill-opacity:1;stroke:none;stroke-width:2;stroke-linecap:square;stroke-linejoin:miter;stroke-miterlimit:4;stroke-dasharray:none;stroke-dashoffset:0;stroke-opacity:1;marker:none;marker-start:none;marker-mid:none;marker-end:none;paint-order:normal"/><rect style="color:#000;text-align:start;overflow:visible;vector-effect:none;fill:#888a85;fill-opacity:1;stroke:none;stroke-linecap:round" id="button6-leader" width="1" height="1" x="199.151" y="250.006"/></g></g><g id="LEDs" transform="translate(0,-2.6458338)" style="display:inline"><g style="display:inline" id="led0-path" transform="matrix(-0.29294531,0,0,0.26458333,70.145744,50.590488)"><path style="color:#000;overflow:visible;opacity:1;vector-effect:none;fill:none;fill-opacity:1;stroke:#888a85;stroke-width:1;stroke-linecap:square;stroke-linejoin:miter;stroke-miterlimit:4;stroke-dasharray:none;stroke-dashoffset:0;stroke-opacity:1;marker:none;marker-start:none;marker-mid:none;marker-end:none;paint-order:normal" id="path966-0-2" d="m 19.28901,250.49471 219.01243,0.008"/><rect style="color:#000;overflow:visible;opacity:1;vector-effect:none;fill:#2e3436;fill-opacity:1;stroke:none;stroke-width:2;stroke-linecap:square;stroke-linejoin:miter;stroke-miterlimit:4;stroke-dasharray:none;stroke-dashoffset:0;stroke-opacity:1;marker:none;marker-start:none;marker-mid:none;marker-end:none;paint-order:normal" id="rect976-2-1" width="7" height="7" x="16.834" y="246.637"/><rect id="led0-leader" width="1" height="1" x="237.785" y="249.973" style="color:#000;text-align:end;overflow:visible;vector-effect:none;fill:#888a85;fill-opacity:1;stroke:none;stroke-linecap:round"/></g></g></svg>