<svg xmlns="http://www.w3.org/2000/svg" xmlns:svg="http://www.w3.org/2000/svg" id="svg8" width="490" height="490" version="1.1" viewBox="0 0 129.646 129.646"><metadata id="metadata5"/><g id="Device" transform="translate(0,-167.35416)" style="display:inline;opacity:1"><path style="opacity:1;fill:#d3d3ce;fill-opacity:1;fill-rule:evenodd;stroke:#bfc2bb;stroke-width:.98636663;stroke-linecap:butt;stroke-linejoin:miter;stroke-miterlimit:4;stroke-dasharray:none;stroke-opacity:1" id="path882" d="m 40.966398,178.40384 c 10.128269,-6.06958 13.843202,-5.15315 22.125375,-5.36057 0.815799,-0.022 1.397736,-0.0441 2.213535,-0.0661 7.544908,0.008 16.804302,3.17239 21.130756,6.44865 1.422136,0.452 2.190922,3.57156 3.150036,8.42225 0.859896,4.92786 2.377355,23.3214 3.378944,30.28552 4.289427,17.445 6.148079,21.13233 5.839397,36.23562 0.08155,9.96062 -3.435205,16.37945 -6.88054,22.71347 -4.707536,5.80429 -6.249571,6.86442 -15.801399,10.09956 -7.805208,1.74184 -11.135198,2.13807 -18.278948,0.8372 -6.32795,-1.67569 -10.758421,-3.68269 -14.782617,-8.15118 -2.665941,-4.21879 -4.043454,-12.34041 -3.573015,-23.27668 0.83923,-20.53867 -3.23693,-47.28029 -3.417692,-53.41373 l 0.529166,-14.69573 c 0.23151,-6.33201 2.28507,-9.07943 4.367002,-10.07828 z"/><path style="display:inline;opacity:1;fill:none;fill-opacity:.39215686;stroke:#babdb6;stroke-width:3.62082291;stroke-linecap:square;stroke-linejoin:bevel;stroke-miterlimit:4;stroke-dasharray:none;stroke-opacity:1" id="led0" d="m 69.116129,274.32485 a 6.5174346,6.5174408 0 0 1 0,9.21706 6.5174346,6.5174408 0 0 1 -9.217044,0 6.5174346,6.5174408 0 0 1 -10e-7,-9.21706"/><path style="display:inline;opacity:1;fill:none;stroke:#babdb6;stroke-width:.51011664;stroke-linecap:butt;stroke-linejoin:miter;stroke-miterlimit:4;stroke-dasharray:none;stroke-opacity:1" id="path4530-9" d="m 63.998032,175.33704 c -0.0617,17.18181 0,37.8177 0,37.8177 v 0"/><rect style="display:inline;opacity:1;fill:#eeeeec;fill-opacity:1;stroke:#bfc2bb;stroke-width:.65934163;stroke-miterlimit:4;stroke-dasharray:none;stroke-opacity:1" id="button2" width="8.657" height="16.992" x="59.667" y="183.855" rx="2.9" ry="1.505"/><rect style="display:inline;opacity:1;fill:#d3d3ce;fill-opacity:1;stroke:#bfc2bb;stroke-width:.50999999;stroke-miterlimit:4;stroke-dasharray:none;stroke-opacity:1" id="button5" width="4.077" height="11.665" x="61.934" y="213.306" rx=".631" ry=".749"/><path style="opacity:1;fill:#eeeeec;fill-opacity:1;fill-rule:evenodd;stroke:#bfc2bb;stroke-width:.65934163;stroke-linecap:butt;stroke-linejoin:miter;stroke-miterlimit:4;stroke-dasharray:none;stroke-opacity:1" id="path959" d="m 91.112176,226.98205 c -0.763945,13.64188 -1.430609,13.74737 0,20.39268 0.486529,2.25997 1.696179,5.2841 2.85379,6.32088 1.157611,1.03679 1.081149,0.34438 4.589061,0.89006 0.940243,-6.53749 -0.570931,-13.96226 -1.479399,-18.97414 -1.652616,-7.76419 -2.041209,-9.76648 -4.816357,-19.91603 -0.935218,-0.0567 -1.141827,10.22026 -1.147095,11.28655 z"/><path style="opacity:1;fill:#d3d3ce;fill-opacity:1;fill-rule:evenodd;stroke:#bfc2bb;stroke-width:.51011664;stroke-linecap:butt;stroke-linejoin:miter;stroke-miterlimit:4;stroke-dasharray:none;stroke-opacity:1" id="button0" d="m 38.306404,179.27446 c 6.240372,-5.59743 15.089504,-6.58952 25.788485,-6.52355 0.06236,2.93106 -0.208006,8.1177 -0.145616,11.04875 -0.966626,0.0156 -1.617539,-0.0389 -2.677709,0.15206 -0.576857,0.12082 -1.668207,0.59244 -1.683798,1.44993 0.03118,4.73958 0.06237,9.47916 0.09355,14.21874 0.428974,0.80223 0.791803,1.0753 1.683798,1.21608 h 2.666014 c 0.09354,3.89768 -0.04677,7.79536 0.04677,11.69304 -1.777343,0.0624 -3.554686,0.12473 -5.332029,0.18709 -4.677216,3.30523 -9.354432,6.6104 -14.031648,9.91563 -1.948383,1.15278 -2.949891,1.59818 -7.302533,1.7394 -0.830377,-6.12609 -3.925564,-39.29473 0.894716,-45.09717 z"/><path style="display:inline;opacity:1;fill:#d3d3ce;fill-opacity:1;fill-rule:evenodd;stroke:#bfc2bb;stroke-width:.51011664;stroke-linecap:butt;stroke-linejoin:miter;stroke-miterlimit:4;stroke-dasharray:none;stroke-opacity:1" id="button1" d="m 87.229344,179.65609 c -8.975635,-7.54404 -14.108253,-6.88035 -22.922173,-6.91425 -0.06236,2.93106 0.0077,8.08746 -0.05466,11.01851 0.966626,0.0156 1.617539,-0.0389 2.677709,0.15206 0.576857,0.12082 1.668207,0.59244 1.683798,1.44993 -0.03118,4.73958 -0.06237,9.47916 -0.09355,14.21874 -0.428974,0.80223 -0.791803,1.0753 -1.683798,1.21608 h -2.80633 c -0.09354,3.89768 0.187088,7.79536 0.09354,11.69304 1.777343,0.0624 3.554686,0.12473 5.332029,0.18709 4.677216,3.30523 9.050413,6.64971 13.72763,9.95494 2.182243,-0.0165 4.486808,-0.13974 7.992488,-0.15492 2.289604,-8.17688 -1.912326,-39.03947 -3.946687,-42.82126 z"/><path style="opacity:1;fill:#d3d3ce;fill-opacity:1;fill-rule:evenodd;stroke:#bfc2bb;stroke-width:.51011664;stroke-linecap:butt;stroke-linejoin:miter;stroke-miterlimit:4;stroke-dasharray:none;stroke-opacity:1" id="button3" d="m 39.533701,248.31208 c 0.08789,-9.75637 -0.210156,-12.40005 -1.249267,-23.97153 -0.755908,0.011 0.02246,0.0448 -1.253567,0.0612 l 1.730229,23.94557 c 0.618261,-0.0306 -0.0064,-0.0352 0.772605,-0.0352 z"/><path style="opacity:1;fill:#d3d3ce;fill-opacity:1;fill-rule:evenodd;stroke:#bfc2bb;stroke-width:.51011664;stroke-linecap:butt;stroke-linejoin:miter;stroke-miterlimit:4;stroke-dasharray:none;stroke-opacity:1" id="button4" d="m 38.039569,223.41713 -1.173721,-0.46275 -1.223702,-11.3646 0.83829,-1.79053 z"/><g id="g27" style="opacity:1"><path id="led1" d="m 60.202463,185.20746 c 0,14.31228 0,14.31228 0,14.31228" style="fill:#c8c8c8;fill-opacity:1;stroke:#babdb6;stroke-width:.23228861px;stroke-linecap:butt;stroke-linejoin:miter;stroke-opacity:1"/><path id="led0-3" d="m 67.749483,185.21452 c 0,14.31228 0,14.31228 0,14.31228" style="display:inline;opacity:1;fill:#c8c8c8;fill-opacity:1;stroke:#babdb6;stroke-width:.23228861px;stroke-linecap:butt;stroke-linejoin:miter;stroke-opacity:1"/></g><path style="fill:none;fill-rule:evenodd;stroke:#bfc2bb;stroke-width:.50999999;stroke-linecap:butt;stroke-linejoin:miter;stroke-opacity:1;stroke-miterlimit:4;stroke-dasharray:none" id="path951" d="m 63.937548,224.94747 v 9.40121"/></g><g id="Buttons" transform="translate(0,-2.6458338)" style="display:inline"><g style="display:inline" id="button0-path" transform="matrix(-0.29294531,0,0,0.26458333,70.19679,-46.28282)"><path style="color:#000;overflow:visible;opacity:1;vector-effect:none;fill:none;fill-opacity:1;stroke:#888a85;stroke-width:1;stroke-linecap:square;stroke-linejoin:miter;stroke-miterlimit:4;stroke-dasharray:none;stroke-dashoffset:0;stroke-opacity:1;marker:none;marker-start:none;marker-mid:none;marker-end:none;paint-order:normal" id="path966" d="m 69.018882,250.50576 170.100828,0.008"/><rect style="color:#000;overflow:visible;opacity:1;vector-effect:none;fill:#2e3436;fill-opacity:1;stroke:none;stroke-width:2;stroke-linecap:square;stroke-linejoin:miter;stroke-miterlimit:4;stroke-dasharray:none;stroke-dashoffset:0;stroke-opacity:1;marker:none;marker-start:none;marker-mid:none;marker-end:none;paint-order:normal" id="rect976" width="7" height="7" x="65.212" y="247.256"/><rect id="button0-leader" width="1" height="1" x="238.663" y="250.017" style="color:#000;text-align:end;overflow:visible;vector-effect:none;fill:#888a85;fill-opacity:1;stroke:none;stroke-linecap:round"/></g><g style="display:inline" id="button1-path" transform="matrix(0.26458333,0,0,0.26458333,40.502648,-25.152234)"><path style="color:#000;overflow:visible;opacity:1;vector-effect:none;fill:none;fill-opacity:1;stroke:#888a85;stroke-width:.99999994;stroke-linecap:square;stroke-linejoin:miter;stroke-miterlimit:4;stroke-dasharray:none;stroke-dashoffset:0;stroke-opacity:1;marker:none;marker-start:none;marker-mid:none;marker-end:none;paint-order:normal" id="path51" d="m 336.41912,170.11088 -197.26264,0.0828"/><rect style="color:#000;overflow:visible;opacity:1;vector-effect:none;fill:#2e3436;fill-opacity:1;stroke:none;stroke-width:2;stroke-linecap:square;stroke-linejoin:miter;stroke-miterlimit:4;stroke-dasharray:none;stroke-dashoffset:0;stroke-opacity:1;marker:none;marker-start:none;marker-mid:none;marker-end:none;paint-order:normal" id="rect53" width="7" height="7" x="137" y="166.75"/><rect id="button1-leader" width="1" height="1" x="335.927" y="169.612" style="color:#000;text-align:start;overflow:visible;vector-effect:none;fill:#888a85;fill-opacity:1;stroke:none;stroke-linecap:round"/></g><g style="display:inline" id="button2-path" transform="matrix(0.26458333,0,0,0.26458333,39.927878,-13.516602)"><path style="color:#000;overflow:visible;opacity:1;vector-effect:none;fill:none;fill-opacity:1;stroke:#888a85;stroke-width:.99999994;stroke-linecap:square;stroke-linejoin:miter;stroke-miterlimit:4;stroke-dasharray:none;stroke-dashoffset:0;stroke-opacity:1;marker:none;marker-start:none;marker-mid:none;marker-end:none;paint-order:normal" id="path51-2" d="M 338.62224,171.07963 91.069203,171.06803"/><rect style="color:#000;overflow:visible;opacity:1;vector-effect:none;fill:#2e3436;fill-opacity:1;stroke:none;stroke-width:2;stroke-linecap:square;stroke-linejoin:miter;stroke-miterlimit:4;stroke-dasharray:none;stroke-dashoffset:0;stroke-opacity:1;marker:none;marker-start:none;marker-mid:none;marker-end:none;paint-order:normal" id="rect53-3" width="7" height="7" x="87.596" y="167.575"/><rect id="button2-leader" width="1" height="1" x="338.107" y="170.565" style="color:#000;text-align:start;overflow:visible;vector-effect:none;fill:#888a85;fill-opacity:1;stroke:none;stroke-linecap:round"/></g><g style="display:inline" id="button5-path" transform="matrix(0.26458333,0,0,0.26458333,39.855422,10.357346)"><path style="color:#000;overflow:visible;opacity:1;vector-effect:none;fill:none;fill-opacity:1;stroke:#888a85;stroke-width:.99999994;stroke-linecap:square;stroke-linejoin:miter;stroke-miterlimit:4;stroke-dasharray:none;stroke-dashoffset:0;stroke-opacity:1;marker:none;marker-start:none;marker-mid:none;marker-end:none;paint-order:normal" id="path51-2-3" d="M 338.91912,170.14213 91.343981,170.50618"/><rect style="color:#000;overflow:visible;opacity:1;vector-effect:none;fill:#2e3436;fill-opacity:1;stroke:none;stroke-width:2;stroke-linecap:square;stroke-linejoin:miter;stroke-miterlimit:4;stroke-dasharray:none;stroke-dashoffset:0;stroke-opacity:1;marker:none;marker-start:none;marker-mid:none;marker-end:none;paint-order:normal" id="rect53-3-4" width="7" height="7" x="88" y="167.375"/><rect id="button5-leader" width="1" height="1" x="338.325" y="169.659" style="color:#000;text-align:start;overflow:visible;vector-effect:none;fill:#888a85;fill-opacity:1;stroke:none;stroke-linecap:round"/></g><g style="display:inline" id="button4-path" transform="matrix(-0.29294531,0,0,0.26458333,70.354375,-10.600792)"><path style="color:#000;overflow:visible;opacity:1;vector-effect:none;fill:none;fill-opacity:1;stroke:#888a85;stroke-width:1;stroke-linecap:square;stroke-linejoin:miter;stroke-miterlimit:4;stroke-dasharray:none;stroke-dashoffset:0;stroke-opacity:1;marker:none;marker-start:none;marker-mid:none;marker-end:none;paint-order:normal" id="path966-1" d="m 113.69984,250.59415 125.92438,-0.0532"/><rect style="color:#000;overflow:visible;opacity:1;vector-effect:none;fill:#2e3436;fill-opacity:1;stroke:none;stroke-width:2;stroke-linecap:square;stroke-linejoin:miter;stroke-miterlimit:4;stroke-dasharray:none;stroke-dashoffset:0;stroke-opacity:1;marker:none;marker-start:none;marker-mid:none;marker-end:none;paint-order:normal" id="rect976-3" width="7" height="7" x="110.077" y="247.068"/><rect id="button4-leader" width="1" height="1" x="239.16" y="250.06" style="color:#000;text-align:end;overflow:visible;vector-effect:none;fill:#888a85;fill-opacity:1;stroke:none;stroke-linecap:round"/></g><g style="display:inline" id="button3-path" transform="matrix(-0.29294531,0,0,0.26458333,70.260832,1.1857932)"><path style="color:#000;overflow:visible;opacity:1;vector-effect:none;fill:none;fill-opacity:1;stroke:#888a85;stroke-width:1;stroke-linecap:square;stroke-linejoin:miter;stroke-miterlimit:4;stroke-dasharray:none;stroke-dashoffset:0;stroke-opacity:1;marker:none;marker-start:none;marker-mid:none;marker-end:none;paint-order:normal" id="path966-2" d="m 109.05947,250.54995 130.56475,-0.009"/><rect style="color:#000;overflow:visible;opacity:1;vector-effect:none;fill:#2e3436;fill-opacity:1;stroke:none;stroke-width:2;stroke-linecap:square;stroke-linejoin:miter;stroke-miterlimit:4;stroke-dasharray:none;stroke-dashoffset:0;stroke-opacity:1;marker:none;marker-start:none;marker-mid:none;marker-end:none;paint-order:normal" id="rect976-8" width="7" height="7" x="105.544" y="247.061"/><rect id="button3-leader" width="1" height="1" x="238.624" y="250.006" style="color:#000;text-align:end;overflow:visible;vector-effect:none;fill:#888a85;fill-opacity:1;stroke:none;stroke-linecap:round"/></g></g><g id="LEDs" transform="translate(0,-2.6458338)" style="display:inline"><g style="display:inline" id="led1-path" transform="matrix(-0.29294531,0,0,0.26458333,69.912779,-34.520744)"><path style="color:#000;overflow:visible;opacity:1;vector-effect:none;fill:none;fill-opacity:1;stroke:#888a85;stroke-width:1;stroke-linecap:square;stroke-linejoin:miter;stroke-miterlimit:4;stroke-dasharray:none;stroke-dashoffset:0;stroke-opacity:1;marker:none;marker-start:none;marker-mid:none;marker-end:none;paint-order:normal" id="path966-0" d="m 33.260958,250.40632 204.900782,0.0964"/><rect style="color:#000;overflow:visible;opacity:1;vector-effect:none;fill:#2e3436;fill-opacity:1;stroke:none;stroke-width:2;stroke-linecap:square;stroke-linejoin:miter;stroke-miterlimit:4;stroke-dasharray:none;stroke-dashoffset:0;stroke-opacity:1;marker:none;marker-start:none;marker-mid:none;marker-end:none;paint-order:normal" id="rect976-2" width="7" height="7" x="29.527" y="246.991"/><rect id="led1-leader" width="1" height="1" x="237.645" y="249.973" style="color:#000;text-align:end;overflow:visible;vector-effect:none;fill:#888a85;fill-opacity:1;stroke:none;stroke-linecap:round"/></g><g style="display:inline" id="led0-path" transform="matrix(-0.29294531,0,0,0.26458333,69.953208,49.201431)"><path style="color:#000;overflow:visible;opacity:1;vector-effect:none;fill:none;fill-opacity:1;stroke:#888a85;stroke-width:1;stroke-linecap:square;stroke-linejoin:miter;stroke-miterlimit:4;stroke-dasharray:none;stroke-dashoffset:0;stroke-opacity:1;marker:none;marker-start:none;marker-mid:none;marker-end:none;paint-order:normal" id="path966-0-2" d="m 19.28901,250.49471 219.01243,0.008"/><rect style="color:#000;overflow:visible;opacity:1;vector-effect:none;fill:#2e3436;fill-opacity:1;stroke:none;stroke-width:2;stroke-linecap:square;stroke-linejoin:miter;stroke-miterlimit:4;stroke-dasharray:none;stroke-dashoffset:0;stroke-opacity:1;marker:none;marker-start:none;marker-mid:none;marker-end:none;paint-order:normal" id="rect976-2-1" width="7" height="7" x="16.834" y="246.637"/><rect id="led0-leader" width="1" height="1" x="237.785" y="249.973" style="color:#000;text-align:end;overflow:visible;vector-effect:none;fill:#888a85;fill-opacity:1;stroke:none;stroke-linecap:round"/></g></g></svg>