<svg xmlns="http://www.w3.org/2000/svg" xmlns:svg="http://www.w3.org/2000/svg" id="svg8" width="490" height="490" version="1.1" viewBox="0 0 129.646 129.646"><metadata id="metadata5"/><g id="Device" transform="translate(0,-167.35416)" style="display:inline;opacity:1"><path style="opacity:1;fill:#d3d3ce;fill-opacity:1;fill-rule:evenodd;stroke:#bfc2bb;stroke-width:.98636663;stroke-linecap:butt;stroke-linejoin:miter;stroke-miterlimit:4;stroke-dasharray:none;stroke-opacity:1" id="path882" d="m 39.422916,178.73125 c 8.753298,-5.1263 8.742273,-5.15937 19.909893,-6.35 0.86322,1.81872 1.399035,2.16412 3.571875,2.57968 0.815799,-0.022 1.631597,-0.0441 2.447396,-0.0661 1.808025,-0.44162 2.142728,-0.67277 3.108854,-2.4474 11.230355,1.36029 11.188618,1.38757 18.25625,6.74688 2.745052,3.1309 3.671094,5.00504 4.365625,8.59896 0.264583,5.1263 1.254823,10.38485 1.320969,15.47808 l 2.184761,4.89479 v 17.19791 l -2.513542,0.99224 10e-7,1.52135 2.513541,0.39687 c -1.007974,11.0006 -2.00013,19.52446 -2.182812,28.97188 -0.57326,10.05417 -0.800418,19.72432 -6.813021,26.64427 -3.502949,4.03157 -9.595838,4.97222 -14.816666,6.09791 -4.39946,0.94859 -9.075269,1.31864 -13.493752,0.46302 -5.302922,-1.02689 -11.328135,-2.43714 -14.816664,-6.56093 -5.920645,-6.99879 -4.641232,-18.97136 -6.81302,-26.64427 -0.782726,-9.55807 -1.367014,-19.31459 -2.050521,-28.97188 l 2.38125,-0.39687 c -0.0441,-0.50712 -0.08819,-1.01423 -0.132292,-1.52135 l -2.38125,-0.99224 v -17.19791 c 0.617361,-1.6316 1.234723,-3.26319 1.852084,-4.89479 l 0.926041,-18.19006 c 0.496094,-3.10887 1.256771,-4.69638 3.175,-6.35004 z"/><path style="display:inline;opacity:1;fill:none;fill-opacity:.39215686;stroke:#babdb6;stroke-width:3.62082291;stroke-linecap:square;stroke-linejoin:bevel;stroke-miterlimit:4;stroke-dasharray:none;stroke-opacity:1" id="led0" d="m 69.116129,274.32485 a 6.5174346,6.5174408 0 0 1 0,9.21706 6.5174346,6.5174408 0 0 1 -9.217044,0 6.5174346,6.5174408 0 0 1 -10e-7,-9.21706"/><path style="display:inline;opacity:1;fill:none;stroke:#babdb6;stroke-width:.51011664;stroke-linecap:butt;stroke-linejoin:miter;stroke-miterlimit:4;stroke-dasharray:none;stroke-opacity:1" id="path4530-9" d="m 63.998032,175.33704 c -0.0617,17.18181 0,37.8177 0,37.8177 v 0"/><rect style="display:inline;opacity:1;fill:#eeeeec;fill-opacity:1;stroke:#bfc2bb;stroke-width:.65934163;stroke-miterlimit:4;stroke-dasharray:none;stroke-opacity:1" id="button2" width="8.657" height="16.992" x="59.667" y="183.855" rx="2.9" ry="1.505"/><rect style="display:inline;opacity:1;fill:#d3d3ce;fill-opacity:1;stroke:#bfc2bb;stroke-width:.51011664;stroke-miterlimit:4;stroke-dasharray:none;stroke-opacity:1" id="button7" width="4.077" height="11.665" x="61.934" y="213.306" rx=".631" ry=".749"/><path style="opacity:1;fill:#eeeeec;fill-opacity:1;fill-rule:evenodd;stroke:#bfc2bb;stroke-width:.65934163;stroke-linecap:butt;stroke-linejoin:miter;stroke-miterlimit:4;stroke-dasharray:none;stroke-opacity:1" id="path961" d="m 37.140885,265.81223 c 1.378038,-1.69774 2.359202,-2.7671 2.910417,-4.69635 0.275607,-1.59853 0.319704,-2.27101 0.132291,-3.70417 l -0.529166,-2.91042 c -0.352778,0.022 -0.705556,0.0441 -1.058334,0.0661 -1.113455,-0.31971 -1.631597,-0.93707 -2.248958,-1.65365 -0.429948,-0.89297 -0.859896,-1.78593 -1.289844,-2.6789 l 0.529167,6.91224 z"/><path style="opacity:1;fill:#d3d3ce;fill-opacity:1;fill-rule:evenodd;stroke:#bfc2bb;stroke-width:.51011664;stroke-linecap:butt;stroke-linejoin:miter;stroke-miterlimit:4;stroke-dasharray:none;stroke-opacity:1" id="button0" d="m 39.662795,224.50314 c -1.418755,-15.53616 -1.294028,-30.04332 -0.748352,-45.27546 7.464057,-5.23848 10.578303,-5.75298 20.392662,-7.01583 0.604141,2.15932 2.552981,2.88039 4.583673,2.89988 0.06236,2.93106 -0.0039,5.75688 0.05847,8.68793 -0.966626,0.0156 -1.617539,-0.0389 -2.677709,0.15206 -0.576857,0.12082 -1.668207,0.59244 -1.683798,1.44993 0.03118,4.73958 0.06237,9.47916 0.09355,14.21874 0.428974,0.80223 0.791803,1.0753 1.683798,1.21608 h 2.666014 c 0.09354,3.89768 -0.04677,7.79536 0.04677,11.69304 -1.777343,0.0624 -3.554686,0.12473 -5.332029,0.18709 -4.677216,3.30523 -9.354432,6.61047 -14.031648,9.9157 -1.948383,1.15278 -3.036871,1.77639 -5.051401,1.87084 z"/><path style="display:inline;opacity:1;fill:#d3d3ce;fill-opacity:1;fill-rule:evenodd;stroke:#bfc2bb;stroke-width:.51011664;stroke-linecap:butt;stroke-linejoin:miter;stroke-miterlimit:4;stroke-dasharray:none;stroke-opacity:1" id="button1" d="m 88.538966,224.46383 c 1.418756,-15.53616 -0.763946,-29.5756 -1.309622,-44.80774 -6.341526,-5.61266 -8.520329,-6.2207 -18.334688,-7.48355 -0.604141,2.15932 -2.833614,2.83362 -4.864306,2.85311 -0.06236,2.93106 0.284533,5.80365 0.222163,8.7347 0.966626,0.0156 1.617539,-0.0389 2.677709,0.15206 0.576857,0.12082 1.668207,0.59244 1.683798,1.44993 -0.03118,4.73958 -0.06237,9.47916 -0.09355,14.21874 -0.428974,0.80223 -0.791803,1.0753 -1.683798,1.21608 h -2.80633 c -0.09354,3.89768 0.187088,7.79536 0.09354,11.69304 1.777343,0.0624 3.554686,0.12473 5.332029,0.18709 4.677216,3.30523 9.354432,6.61047 14.031649,9.9157 1.948382,1.15278 3.036871,1.77639 5.0514,1.87084 z"/><path style="opacity:1;fill:#d3d3ce;fill-opacity:1;fill-rule:evenodd;stroke:#bfc2bb;stroke-width:.51011664;stroke-linecap:butt;stroke-linejoin:miter;stroke-miterlimit:4;stroke-dasharray:none;stroke-opacity:1" id="button3" d="m 39.721262,254.48409 c -2.127995,-12.76601 -2.492187,-15.11204 -3.531298,-26.68352 -0.880877,0.16371 -1.761753,0.32741 -2.64263,0.49111 0.510597,7.26528 1.021194,14.53055 1.531791,21.79583 0.415673,1.21059 0.673654,1.8504 1.39147,2.98173 0.557369,0.65481 1.067966,1.08745 1.882582,1.5084 0.738934,0.12313 0.851361,0.031 1.368085,-0.0935 z"/><path style="opacity:1;fill:#d3d3ce;fill-opacity:1;fill-rule:evenodd;stroke:#bfc2bb;stroke-width:.51011664;stroke-linecap:butt;stroke-linejoin:miter;stroke-miterlimit:4;stroke-dasharray:none;stroke-opacity:1" id="button4" d="m 36.061341,226.30387 -2.595857,-0.95884 v -17.51617 l 2.128134,-4.89938 z"/><g id="g27" style="opacity:1"><path id="led1" d="m 60.202463,185.20746 c 0,14.31228 0,14.31228 0,14.31228" style="fill:#c8c8c8;fill-opacity:1;stroke:#babdb6;stroke-width:.23228861px;stroke-linecap:butt;stroke-linejoin:miter;stroke-opacity:1"/><path id="led0-3" d="m 67.749483,185.21452 c 0,14.31228 0,14.31228 0,14.31228" style="display:inline;opacity:1;fill:#c8c8c8;fill-opacity:1;stroke:#babdb6;stroke-width:.23228861px;stroke-linecap:butt;stroke-linejoin:miter;stroke-opacity:1"/></g><path style="display:inline;opacity:1;fill:#d3d3ce;fill-opacity:1;fill-rule:evenodd;stroke:#bfc2bb;stroke-width:.51011664;stroke-linecap:butt;stroke-linejoin:miter;stroke-miterlimit:4;stroke-dasharray:none;stroke-opacity:1" id="button6" d="m 91.839114,226.13585 2.59586,-0.95884 v -17.51617 l -2.12814,-4.89938 z"/><path style="display:inline;opacity:1;fill:#eeeeec;fill-opacity:1;fill-rule:evenodd;stroke:#bfc2bb;stroke-width:.65934163;stroke-linecap:butt;stroke-linejoin:miter;stroke-miterlimit:4;stroke-dasharray:none;stroke-opacity:1" id="path961-7" d="m 91.651856,265.50364 c -1.378038,-1.69774 -3.25217,-2.70095 -3.803385,-4.6302 -0.275607,-1.59853 -0.319704,-2.27101 -0.132291,-3.70417 l 0.529166,-2.91042 c 0.352778,0.022 0.705556,0.0441 1.058334,0.0661 1.113455,-0.31971 1.631597,-0.93707 2.248958,-1.65365 0.429948,-0.89297 0.859896,-1.78593 1.289844,-2.6789 l -0.529167,6.91224 z"/><path style="display:inline;opacity:1;fill:#d3d3ce;fill-opacity:1;fill-rule:evenodd;stroke:#bfc2bb;stroke-width:.51011664;stroke-linecap:butt;stroke-linejoin:miter;stroke-miterlimit:4;stroke-dasharray:none;stroke-opacity:1" id="button5" d="m 88.31891,254.33178 c 2.127995,-12.76601 2.492187,-15.11204 3.531298,-26.68352 0.880877,0.16371 1.761753,0.32741 2.64263,0.49111 -0.510597,7.26528 -1.021194,14.53055 -1.531791,21.79583 -0.415673,1.21059 -0.673654,1.8504 -1.39147,2.98173 -0.557369,0.65481 -1.067966,1.08745 -1.882582,1.5084 -0.738934,0.12313 -0.851361,0.031 -1.368085,-0.0935 z"/></g><g id="Buttons" transform="translate(0,-2.6458338)" style="display:inline"><g style="display:inline" id="button0-path" transform="matrix(-0.29294531,0,0,0.26458333,70.19679,-46.28282)"><path style="color:#000;overflow:visible;opacity:1;vector-effect:none;fill:none;fill-opacity:1;stroke:#888a85;stroke-width:1;stroke-linecap:square;stroke-linejoin:miter;stroke-miterlimit:4;stroke-dasharray:none;stroke-dashoffset:0;stroke-opacity:1;marker:none;marker-start:none;marker-mid:none;marker-end:none;paint-order:normal" id="path966" d="m 69.018882,250.50576 170.100828,0.008"/><rect style="color:#000;overflow:visible;opacity:1;vector-effect:none;fill:#2e3436;fill-opacity:1;stroke:none;stroke-width:2;stroke-linecap:square;stroke-linejoin:miter;stroke-miterlimit:4;stroke-dasharray:none;stroke-dashoffset:0;stroke-opacity:1;marker:none;marker-start:none;marker-mid:none;marker-end:none;paint-order:normal" id="rect976" width="7" height="7" x="65.212" y="247.256"/><rect id="button0-leader" width="1" height="1" x="238.663" y="250.017" style="color:#000;text-align:end;overflow:visible;vector-effect:none;fill:#888a85;fill-opacity:1;stroke:none;stroke-linecap:round"/></g><g style="display:inline" id="button1-path" transform="matrix(0.26458333,0,0,0.26458333,40.502648,-25.152234)"><path style="color:#000;overflow:visible;opacity:1;vector-effect:none;fill:none;fill-opacity:1;stroke:#888a85;stroke-width:.99999994;stroke-linecap:square;stroke-linejoin:miter;stroke-miterlimit:4;stroke-dasharray:none;stroke-dashoffset:0;stroke-opacity:1;marker:none;marker-start:none;marker-mid:none;marker-end:none;paint-order:normal" id="path51" d="m 336.41912,170.11088 -197.26264,0.0828"/><rect style="color:#000;overflow:visible;opacity:1;vector-effect:none;fill:#2e3436;fill-opacity:1;stroke:none;stroke-width:2;stroke-linecap:square;stroke-linejoin:miter;stroke-miterlimit:4;stroke-dasharray:none;stroke-dashoffset:0;stroke-opacity:1;marker:none;marker-start:none;marker-mid:none;marker-end:none;paint-order:normal" id="rect53" width="7" height="7" x="137" y="166.75"/><rect id="button1-leader" width="1" height="1" x="335.927" y="169.612" style="color:#000;text-align:start;overflow:visible;vector-effect:none;fill:#888a85;fill-opacity:1;stroke:none;stroke-linecap:round"/></g><g style="display:inline" id="button2-path" transform="matrix(0.26458333,0,0,0.26458333,39.927878,-13.516602)"><path style="color:#000;overflow:visible;opacity:1;vector-effect:none;fill:none;fill-opacity:1;stroke:#888a85;stroke-width:.99999994;stroke-linecap:square;stroke-linejoin:miter;stroke-miterlimit:4;stroke-dasharray:none;stroke-dashoffset:0;stroke-opacity:1;marker:none;marker-start:none;marker-mid:none;marker-end:none;paint-order:normal" id="path51-2" d="M 338.62224,171.07963 91.069203,171.06803"/><rect style="color:#000;overflow:visible;opacity:1;vector-effect:none;fill:#2e3436;fill-opacity:1;stroke:none;stroke-width:2;stroke-linecap:square;stroke-linejoin:miter;stroke-miterlimit:4;stroke-dasharray:none;stroke-dashoffset:0;stroke-opacity:1;marker:none;marker-start:none;marker-mid:none;marker-end:none;paint-order:normal" id="rect53-3" width="7" height="7" x="87.596" y="167.575"/><rect id="button2-leader" width="1" height="1" x="338.107" y="170.565" style="color:#000;text-align:start;overflow:visible;vector-effect:none;fill:#888a85;fill-opacity:1;stroke:none;stroke-linecap:round"/></g><g style="display:inline" id="button7-path" transform="matrix(0.26458333,0,0,0.26458333,39.855422,10.357346)"><path style="color:#000;overflow:visible;opacity:1;vector-effect:none;fill:none;fill-opacity:1;stroke:#888a85;stroke-width:.99999994;stroke-linecap:square;stroke-linejoin:miter;stroke-miterlimit:4;stroke-dasharray:none;stroke-dashoffset:0;stroke-opacity:1;marker:none;marker-start:none;marker-mid:none;marker-end:none;paint-order:normal" id="path51-2-3" d="M 339.97978,126.30151 139.89299,126.07359 91.343981,170.50618"/><rect style="color:#000;overflow:visible;opacity:1;vector-effect:none;fill:#2e3436;fill-opacity:1;stroke:none;stroke-width:2;stroke-linecap:square;stroke-linejoin:miter;stroke-miterlimit:4;stroke-dasharray:none;stroke-dashoffset:0;stroke-opacity:1;marker:none;marker-start:none;marker-mid:none;marker-end:none;paint-order:normal" id="rect53-3-4" width="7" height="7" x="88" y="167.375"/><rect id="button7-leader" width="1" height="1" x="338.414" y="125.465" style="color:#000;text-align:start;overflow:visible;vector-effect:none;fill:#888a85;fill-opacity:1;stroke:none;stroke-linecap:round"/></g><g style="display:inline" id="button4-path" transform="matrix(-0.29294531,0,0,0.26458333,70.354375,-10.600792)"><path style="color:#000;overflow:visible;opacity:1;vector-effect:none;fill:none;fill-opacity:1;stroke:#888a85;stroke-width:1;stroke-linecap:square;stroke-linejoin:miter;stroke-miterlimit:4;stroke-dasharray:none;stroke-dashoffset:0;stroke-opacity:1;marker:none;marker-start:none;marker-mid:none;marker-end:none;paint-order:normal" id="path966-1" d="m 121.40352,250.50576 118.2207,0.0352"/><rect style="color:#000;overflow:visible;opacity:1;vector-effect:none;fill:#2e3436;fill-opacity:1;stroke:none;stroke-width:2;stroke-linecap:square;stroke-linejoin:miter;stroke-miterlimit:4;stroke-dasharray:none;stroke-dashoffset:0;stroke-opacity:1;marker:none;marker-start:none;marker-mid:none;marker-end:none;paint-order:normal" id="rect976-3" width="7" height="7" x="118.02" y="247.068"/><rect id="button4-leader" width="1" height="1" x="239.16" y="250.06" style="color:#000;text-align:end;overflow:visible;vector-effect:none;fill:#888a85;fill-opacity:1;stroke:none;stroke-linecap:round"/></g><g style="display:inline" id="button3-path" transform="matrix(-0.29294531,0,0,0.26458333,70.260832,1.1857932)"><path style="color:#000;overflow:visible;opacity:1;vector-effect:none;fill:none;fill-opacity:1;stroke:#888a85;stroke-width:1;stroke-linecap:square;stroke-linejoin:miter;stroke-miterlimit:4;stroke-dasharray:none;stroke-dashoffset:0;stroke-opacity:1;marker:none;marker-start:none;marker-mid:none;marker-end:none;paint-order:normal" id="path966-2" d="m 119.59715,250.50576 120.02707,0.0352"/><rect style="color:#000;overflow:visible;opacity:1;vector-effect:none;fill:#2e3436;fill-opacity:1;stroke:none;stroke-width:2;stroke-linecap:square;stroke-linejoin:miter;stroke-miterlimit:4;stroke-dasharray:none;stroke-dashoffset:0;stroke-opacity:1;marker:none;marker-start:none;marker-mid:none;marker-end:none;paint-order:normal" id="rect976-8" width="7" height="7" x="116.242" y="247.193"/><rect id="button3-leader" width="1" height="1" x="238.624" y="250.006" style="color:#000;text-align:end;overflow:visible;vector-effect:none;fill:#888a85;fill-opacity:1;stroke:none;stroke-linecap:round"/></g><g style="display:inline" id="button6-path" transform="matrix(0.29294531,0,0,0.26458333,57.669203,-10.667542)"><path style="color:#000;overflow:visible;opacity:1;vector-effect:none;fill:none;fill-opacity:1;stroke:#888a85;stroke-width:1;stroke-linecap:square;stroke-linejoin:miter;stroke-miterlimit:4;stroke-dasharray:none;stroke-dashoffset:0;stroke-opacity:1;marker:none;marker-start:none;marker-mid:none;marker-end:none;paint-order:normal" id="path966-1-56" d="M 121.40352,250.50576 245.2523,250.36418"/><rect style="color:#000;overflow:visible;opacity:1;vector-effect:none;fill:#2e3436;fill-opacity:1;stroke:none;stroke-width:2;stroke-linecap:square;stroke-linejoin:miter;stroke-miterlimit:4;stroke-dasharray:none;stroke-dashoffset:0;stroke-opacity:1;marker:none;marker-start:none;marker-mid:none;marker-end:none;paint-order:normal" id="rect976-3-2" width="7" height="7" x="118.02" y="247.068"/><rect id="button6-leader" width="1" height="1" x="244.759" y="249.933" style="color:#000;text-align:start;overflow:visible;vector-effect:none;fill:#888a85;fill-opacity:1;stroke:none;stroke-linecap:round"/></g><g style="display:inline" id="button5-path" transform="matrix(0.29294531,0,0,0.26458333,57.642982,1.1725622)"><path style="color:#000;overflow:visible;opacity:1;vector-effect:none;fill:none;fill-opacity:1;stroke:#888a85;stroke-width:1;stroke-linecap:square;stroke-linejoin:miter;stroke-miterlimit:4;stroke-dasharray:none;stroke-dashoffset:0;stroke-opacity:1;marker:none;marker-start:none;marker-mid:none;marker-end:none;paint-order:normal" id="path966-1-56-2" d="M 121.40352,250.50576 245.2523,250.36418"/><rect style="color:#000;overflow:visible;opacity:1;vector-effect:none;fill:#2e3436;fill-opacity:1;stroke:none;stroke-width:2;stroke-linecap:square;stroke-linejoin:miter;stroke-miterlimit:4;stroke-dasharray:none;stroke-dashoffset:0;stroke-opacity:1;marker:none;marker-start:none;marker-mid:none;marker-end:none;paint-order:normal" id="rect976-3-2-7" width="7" height="7" x="116.503" y="247.245"/><rect id="button5-leader" width="1" height="1" x="244.759" y="249.933" style="color:#000;text-align:start;overflow:visible;vector-effect:none;fill:#888a85;fill-opacity:1;stroke:none;stroke-linecap:round"/></g></g><g id="LEDs" transform="translate(0,-2.6458338)" style="display:inline"><g style="display:inline" id="led1-path" transform="matrix(-0.29294531,0,0,0.26458333,69.912779,-34.520744)"><path style="color:#000;overflow:visible;opacity:1;vector-effect:none;fill:none;fill-opacity:1;stroke:#888a85;stroke-width:1;stroke-linecap:square;stroke-linejoin:miter;stroke-miterlimit:4;stroke-dasharray:none;stroke-dashoffset:0;stroke-opacity:1;marker:none;marker-start:none;marker-mid:none;marker-end:none;paint-order:normal" id="path966-0" d="m 33.260958,250.40632 204.900782,0.0964"/><rect style="color:#000;overflow:visible;opacity:1;vector-effect:none;fill:#2e3436;fill-opacity:1;stroke:none;stroke-width:2;stroke-linecap:square;stroke-linejoin:miter;stroke-miterlimit:4;stroke-dasharray:none;stroke-dashoffset:0;stroke-opacity:1;marker:none;marker-start:none;marker-mid:none;marker-end:none;paint-order:normal" id="rect976-2" width="7" height="7" x="29.527" y="246.991"/><rect id="led1-leader" width="1" height="1" x="237.645" y="249.973" style="color:#000;text-align:end;overflow:visible;vector-effect:none;fill:#888a85;fill-opacity:1;stroke:none;stroke-linecap:round"/></g><g style="display:inline" id="led0-path" transform="matrix(-0.29294531,0,0,0.26458333,69.953208,49.201431)"><path style="color:#000;overflow:visible;opacity:1;vector-effect:none;fill:none;fill-opacity:1;stroke:#888a85;stroke-width:1;stroke-linecap:square;stroke-linejoin:miter;stroke-miterlimit:4;stroke-dasharray:none;stroke-dashoffset:0;stroke-opacity:1;marker:none;marker-start:none;marker-mid:none;marker-end:none;paint-order:normal" id="path966-0-2" d="m 19.28901,250.49471 219.01243,0.008"/><rect style="color:#000;overflow:visible;opacity:1;vector-effect:none;fill:#2e3436;fill-opacity:1;stroke:none;stroke-width:2;stroke-linecap:square;stroke-linejoin:miter;stroke-miterlimit:4;stroke-dasharray:none;stroke-dashoffset:0;stroke-opacity:1;marker:none;marker-start:none;marker-mid:none;marker-end:none;paint-order:normal" id="rect976-2-1" width="7" height="7" x="16.834" y="246.637"/><rect id="led0-leader" width="1" height="1" x="237.785" y="249.973" style="color:#000;text-align:end;overflow:visible;vector-effect:none;fill:#888a85;fill-opacity:1;stroke:none;stroke-linecap:round"/></g></g></svg>