<svg xmlns="http://www.w3.org/2000/svg" xmlns:svg="http://www.w3.org/2000/svg" xmlns:xlink="http://www.w3.org/1999/xlink" id="svg2" width="717.506" height="472.832" version="1.1"><defs id="defs4"><linearGradient id="linearGradient3894"><stop style="stop-color:#ea9b4a;stop-opacity:1" id="stop3896" offset="0"/><stop style="stop-color:#c1803d;stop-opacity:1" id="stop3898" offset="1"/></linearGradient><linearGradient id="linearGradient3900" x1="263.493" x2="482.209" y1="391.047" y2="340.54" gradientTransform="matrix(1.0666667,0,0,1.0666667,68.65989,152.96161)" gradientUnits="userSpaceOnUse" xlink:href="#linearGradient3894"/></defs><metadata id="metadata7"/><g id="layer2" transform="translate(-68.65989,-152.96161)" style="display:inline"><path style="fill:url(#linearGradient3900);fill-opacity:1;stroke:none;stroke-width:1.06666672" id="path3061" d="M 108.65989,292.72923 424.76191,249.90476 746.01833,477.82785 375.71149,536.9197 Z"/><path style="fill:#db9145;fill-opacity:1;stroke:none;stroke-width:1.06666672" id="path3055" d="M 108.95238,292.57142 375.61905,536.38095 376,585.14286 108.86787,330.53595 Z"/><path style="fill:#b5783a;fill-opacity:1;stroke:none;stroke-width:1.06666672" id="path3059" d="m 376.04612,536.01347 370.1199,-58.18479 -2.155,43.09984 -367.62809,64.86466 z"/></g><g id="layer3" transform="translate(-68.65989,-152.96161)" style="display:inline"><path style="fill:none;stroke:#9d9d9d;stroke-width:9.70666695;stroke-linecap:butt;stroke-linejoin:round;stroke-miterlimit:4;stroke-dasharray:none;stroke-opacity:1" id="path3843" d="m 174.55436,247.24452 276.91649,-34.47987 96.97464,120.14081 -273.684,45.79358 z"/><path style="fill:none;stroke:#7a7a7a;stroke-width:7.57333326;stroke-linecap:butt;stroke-linejoin:miter;stroke-miterlimit:4;stroke-dasharray:none;stroke-opacity:1" id="path3849" d="m 322.17132,193.90847 c 0,0 -17.59947,68.14795 -38.78986,64.64977 -21.19039,-3.49818 -28.41414,-47.23492 -11.31371,-52.25856 41.89107,-12.30644 168.08938,187.48431 168.08938,187.48431"/><g id="g3922" transform="matrix(0.82027414,-0.14909439,0.15859627,0.77112956,11.315974,140.91413)"><ellipse id="path3902" cx="371.197" cy="360.382" rx="16.701" ry="31.247" style="color:#000;display:inline;overflow:visible;visibility:visible;fill:none;stroke:#7a7a7a;stroke-width:9.3491993;stroke-opacity:1;marker:none;enable-background:accumulate"/><ellipse style="color:#000;display:inline;overflow:visible;visibility:visible;fill:none;stroke:#7a7a7a;stroke-width:9.3491993;stroke-opacity:1;marker:none;enable-background:accumulate" id="path3908" cx="383.997" cy="360.382" rx="16.701" ry="31.247"/><ellipse id="path3910" cx="398.931" cy="360.382" rx="16.701" ry="31.247" style="color:#000;display:inline;overflow:visible;visibility:visible;fill:none;stroke:#7a7a7a;stroke-width:9.3491993;stroke-opacity:1;marker:none;enable-background:accumulate"/><ellipse style="color:#000;display:inline;overflow:visible;visibility:visible;fill:none;stroke:#7a7a7a;stroke-width:9.3491993;stroke-opacity:1;marker:none;enable-background:accumulate" id="path3912" cx="409.597" cy="360.382" rx="16.701" ry="31.247"/><ellipse id="path3914" cx="422.397" cy="360.382" rx="16.701" ry="31.247" style="color:#000;display:inline;overflow:visible;visibility:visible;fill:none;stroke:#7a7a7a;stroke-width:9.3491993;stroke-opacity:1;marker:none;enable-background:accumulate"/><ellipse style="color:#000;display:inline;overflow:visible;visibility:visible;fill:none;stroke:#7a7a7a;stroke-width:9.3491993;stroke-opacity:1;marker:none;enable-background:accumulate" id="path3916" cx="435.197" cy="360.382" rx="16.701" ry="31.247"/><ellipse id="path3918" cx="445.864" cy="360.382" rx="16.701" ry="31.247" style="color:#000;display:inline;overflow:visible;visibility:visible;fill:none;stroke:#7a7a7a;stroke-width:9.3491993;stroke-opacity:1;marker:none;enable-background:accumulate"/><ellipse style="color:#000;display:inline;overflow:visible;visibility:visible;fill:none;stroke:#7a7a7a;stroke-width:9.3491993;stroke-opacity:1;marker:none;enable-background:accumulate" id="path3920" cx="445.864" cy="360.382" rx="16.701" ry="31.247"/></g><path style="fill:#000;fill-opacity:.23024059;stroke:none;stroke-width:1.06666672" id="path3941" d="m 405.33333,416.38095 61.27124,81.58974 32.61079,17.83884 215.07036,-31.12089 -116.72318,-38.28082 z"/><g id="g3932" transform="translate(-23.466667,2.1333333)"><path id="path3869" d="M 475.17575,461.12749 620.63773,444.96506 633.12417,297.63101 492.2551,317.63005 Z" style="fill:#efcb6d;fill-opacity:1;stroke:none;stroke-width:1.06666672"/><path id="path3873" d="m 492.41569,317.28177 -54.41355,-52.79731 -8.08121,149.2332 45.32217,47.27514 z" style="fill:#f3d281;fill-opacity:1;stroke:none;stroke-width:1.06666672"/><path id="path3877" d="m 437.68656,264.42191 108.69637,-14.10269 55.93736,7.70027 30.70864,39.86735 -140.93163,19.68065 z" style="fill:#f2d392;fill-opacity:1;fill-rule:nonzero;stroke:none;stroke-width:1.06666672"/><ellipse id="path3881" cx="587.909" cy="359.573" rx="27.611" ry="26.668" style="color:#000;display:inline;overflow:visible;visibility:visible;fill:#ebbe5d;fill-opacity:1;stroke:none;stroke-width:9.41831684;marker:none;enable-background:accumulate"/><ellipse id="path3885" cx="466.96" cy="355.668" rx="13.065" ry="33.268" style="color:#000;display:inline;overflow:visible;visibility:visible;fill:#e7bb5b;fill-opacity:1;fill-rule:nonzero;stroke:none;stroke-width:7.57333326;marker:none;enable-background:accumulate"/><ellipse id="path3887" cx="521.912" cy="419.375" rx="15.489" ry="25.052" style="color:#000;display:inline;overflow:visible;visibility:visible;fill:#ebbe5d;fill-opacity:1;fill-rule:nonzero;stroke:none;stroke-width:7.57333326;marker:none;enable-background:accumulate"/><ellipse id="path3889" cx="516.121" cy="285.361" rx="31.786" ry="14.95" style="color:#000;display:inline;overflow:visible;visibility:visible;fill:#fbcc64;fill-opacity:1;fill-rule:nonzero;stroke:none;stroke-width:7.57333326;marker:none;enable-background:accumulate"/></g></g></svg>