<svg xmlns="http://www.w3.org/2000/svg" xmlns:svg="http://www.w3.org/2000/svg" xmlns:xlink="http://www.w3.org/1999/xlink" id="svg2" width="48" height="48" version="1.1"><defs id="defs4"><linearGradient id="linearGradient3894"><stop style="stop-color:#ea9b4a;stop-opacity:1" id="stop3896" offset="0"/><stop style="stop-color:#c1803d;stop-opacity:1" id="stop3898" offset="1"/></linearGradient><linearGradient id="linearGradient3900" x1="263.493" x2="482.209" y1="391.047" y2="340.54" gradientUnits="userSpaceOnUse" xlink:href="#linearGradient3894"/></defs><metadata id="metadata7"/><g id="layer3" transform="translate(-101.86865,-501.18111)" style="display:inline"><g id="g4190" transform="matrix(0.07785635,0,0,0.10219955,95.010815,486.44753)"><path id="path3061" d="m 101.86865,274.43365 296.34564,-40.14794 301.17789,213.6779 -347.16266,55.39861 z" style="display:inline;fill:url(#linearGradient3900);fill-opacity:1;stroke:none"/><path id="path3055" d="m 102.14286,274.28571 250,228.57143 L 352.5,548.57143 102.06363,309.87745 Z" style="display:inline;fill:#db9145;fill-opacity:1;stroke:none"/><path id="path3059" d="m 352.54324,502.51263 346.9874,-54.54824 -2.02031,40.4061 -344.65133,60.81062 z" style="display:inline;fill:#b5783a;fill-opacity:1;stroke:none"/><path id="path3843" d="M 163.64471,231.79174 423.25392,199.46686 514.16765,312.09887 257.5889,355.03035 Z" style="fill:none;stroke:#9d9d9d;stroke-width:9.10000038;stroke-linecap:butt;stroke-linejoin:round;stroke-miterlimit:4;stroke-dasharray:none;stroke-opacity:1"/><path id="path3849" d="m 302.03561,181.78919 c 0,0 -16.4995,63.8887 -36.36549,60.60916 -19.86599,-3.27954 -26.63826,-44.28274 -10.6066,-48.9924 39.27287,-11.53729 157.58379,175.76654 157.58379,175.76654" style="fill:none;stroke:#7a7a7a;stroke-width:7.0999999;stroke-linecap:butt;stroke-linejoin:miter;stroke-miterlimit:4;stroke-dasharray:none;stroke-opacity:1"/><g id="g3922" transform="matrix(0.82027414,-0.14909439,0.15859627,0.77112956,10.608726,132.107)"><ellipse style="color:#000;display:inline;overflow:visible;visibility:visible;fill:none;stroke:#7a7a7a;stroke-width:8.76487446;stroke-opacity:1;marker:none;enable-background:accumulate" id="path3902" cx="347.998" cy="337.858" rx="15.657" ry="29.294"/><ellipse id="path3908" cx="347.998" cy="337.858" rx="15.657" ry="29.294" transform="translate(12,0)" style="color:#000;display:inline;overflow:visible;visibility:visible;fill:none;stroke:#7a7a7a;stroke-width:8.76487446;stroke-opacity:1;marker:none;enable-background:accumulate"/><ellipse style="color:#000;display:inline;overflow:visible;visibility:visible;fill:none;stroke:#7a7a7a;stroke-width:8.76487446;stroke-opacity:1;marker:none;enable-background:accumulate" id="path3910" cx="347.998" cy="337.858" rx="15.657" ry="29.294" transform="translate(26,0)"/><ellipse id="path3912" cx="347.998" cy="337.858" rx="15.657" ry="29.294" transform="translate(36,0)" style="color:#000;display:inline;overflow:visible;visibility:visible;fill:none;stroke:#7a7a7a;stroke-width:8.76487446;stroke-opacity:1;marker:none;enable-background:accumulate"/><ellipse style="color:#000;display:inline;overflow:visible;visibility:visible;fill:none;stroke:#7a7a7a;stroke-width:8.76487446;stroke-opacity:1;marker:none;enable-background:accumulate" id="path3914" cx="347.998" cy="337.858" rx="15.657" ry="29.294" transform="translate(48,0)"/><ellipse id="path3916" cx="347.998" cy="337.858" rx="15.657" ry="29.294" transform="translate(60,0)" style="color:#000;display:inline;overflow:visible;visibility:visible;fill:none;stroke:#7a7a7a;stroke-width:8.76487446;stroke-opacity:1;marker:none;enable-background:accumulate"/><ellipse style="color:#000;display:inline;overflow:visible;visibility:visible;fill:none;stroke:#7a7a7a;stroke-width:8.76487446;stroke-opacity:1;marker:none;enable-background:accumulate" id="path3918" cx="347.998" cy="337.858" rx="15.657" ry="29.294" transform="translate(70,0)"/><ellipse id="path3920" cx="347.998" cy="337.858" rx="15.657" ry="29.294" transform="translate(70,0)" style="color:#000;display:inline;overflow:visible;visibility:visible;fill:none;stroke:#7a7a7a;stroke-width:8.76487446;stroke-opacity:1;marker:none;enable-background:accumulate"/></g><path id="path3941" d="m 380,390.35714 57.44178,76.49038 30.57262,16.72391 L 669.64286,454.3956 560.21488,418.50733 380,390.35714 Z" style="fill:#000;fill-opacity:.23024059;stroke:none"/><g id="g3932" transform="translate(-22,2)"><path style="fill:#efcb6d;fill-opacity:1;stroke:none" id="path3869" d="m 445.47727,432.30702 136.3706,-15.15228 11.70604,-138.12567 -132.06475,18.7491 -16.01189,134.52885 z"/><path style="fill:#f3d281;fill-opacity:1;stroke:none" id="path3873" d="m 461.63971,297.45166 -51.0127,-49.49748 -7.57614,139.90613 42.48954,44.32044 16.0993,-134.72909 z"/><path style="fill:#f2d392;fill-opacity:1;fill-rule:nonzero;stroke:none" id="path3877" d="m 410.33115,247.89554 101.90285,-13.22127 52.44127,7.219 28.78935,37.37564 -132.1234,18.45061 -51.01007,-49.82398 z"/><ellipse style="color:#000;display:inline;overflow:visible;visibility:visible;fill:#ebbe5d;fill-opacity:1;stroke:none;stroke-width:7.0999999;marker:none;enable-background:accumulate" id="path3881" cx="554.195" cy="330.408" rx="22.855" ry="18.309" transform="matrix(1.1325967,0,0,1.3655172,-76.514868,-114.07752)"/><ellipse style="color:#000;display:inline;overflow:visible;visibility:visible;fill:#e7bb5b;fill-opacity:1;fill-rule:nonzero;stroke:none;stroke-width:7.0999999;marker:none;enable-background:accumulate" id="path3885" cx="437.775" cy="333.438" rx="12.248" ry="31.188"/><ellipse style="color:#000;display:inline;overflow:visible;visibility:visible;fill:#ebbe5d;fill-opacity:1;fill-rule:nonzero;stroke:none;stroke-width:7.0999999;marker:none;enable-background:accumulate" id="path3887" cx="489.293" cy="393.164" rx="14.521" ry="23.486"/><ellipse style="color:#000;display:inline;overflow:visible;visibility:visible;fill:#fbcc64;fill-opacity:1;fill-rule:nonzero;stroke:none;stroke-width:7.0999999;marker:none;enable-background:accumulate" id="path3889" cx="483.863" cy="267.526" rx="29.799" ry="14.016"/></g></g></g></svg>